M48
;DRILL file {KiCad no-vcs-found-33e0758~58~ubuntu16.04.1} date Wed Feb  7 18:59:51 2018
;FORMAT={-:-/ absolute / metric / decimal}
FMAT,2
METRIC,TZ
T1C0.400
T2C0.600
T3C0.800
T4C0.850
T5C2.200
%
G90
G05
M71
T1
X162.Y-133.75
X162.25Y-137.25
X162.5Y-140.
X164.75Y-132.25
X164.75Y-136.75
X165.Y-126.25
X165.25Y-134.5
X165.75Y-136.
X166.Y-123.25
X167.5Y-125.5
X168.Y-122.75
X168.75Y-121.75
X168.75Y-131.25
X168.75Y-132.5
X170.Y-121.5
X171.25Y-137.25
X173.5Y-137.5
X176.5Y-129.5
X178.5Y-129.5
X179.Y-127.75
X179.Y-131.25
X179.Y-132.5
X179.Y-138.25
X179.75Y-126.25
X179.75Y-133.25
X180.Y-138.
X180.5Y-139.25
X180.75Y-132.75
X181.5Y-139.25
X182.5Y-139.
X183.25Y-140.
X183.5Y-132.75
X183.75Y-125.25
X183.75Y-126.5
X183.75Y-127.75
X184.Y-142.
T3
X167.55Y-119.6
X169.55Y-119.6
X171.55Y-119.6
X173.55Y-119.6
X175.55Y-119.6
X177.55Y-119.6
X179.55Y-119.6
X181.55Y-119.6
X160.75Y-135.
X160.75Y-137.
X160.75Y-139.
X160.75Y-141.
X167.25Y-141.25
X169.25Y-141.25
X171.25Y-141.25
X173.25Y-141.25
X175.25Y-141.25
X177.25Y-141.25
X179.25Y-141.25
X181.25Y-141.25
T4
X163.75Y-125.5
X163.75Y-130.5
T5
X162.25Y-115.5
X162.25Y-144.75
T2
X160.7Y-124.5G85X161.4Y-124.5
G05
X161.4Y-131.5G85X160.7Y-131.5
G05
T0
M30
