G04 #@! TF.GenerationSoftware,KiCad,Pcbnew,no-vcs-found-33e0758~58~ubuntu16.04.1*
G04 #@! TF.CreationDate,2018-02-07T18:59:58+01:00*
G04 #@! TF.ProjectId,ultrawidebridge,756C747261776964656272696467652E,rev?*
G04 #@! TF.FileFunction,Legend,Bot*
G04 #@! TF.FilePolarity,Positive*
%FSLAX46Y46*%
G04 Gerber Fmt 4.6, Leading zero omitted, Abs format (unit mm)*
G04 Created by KiCad (PCBNEW no-vcs-found-33e0758~58~ubuntu16.04.1) date Wed Feb  7 18:59:58 2018*
%MOMM*%
%LPD*%
G01*
G04 APERTURE LIST*
%ADD10C,0.100000*%
%ADD11C,0.300000*%
%ADD12C,0.150000*%
%ADD13C,0.010000*%
G04 APERTURE END LIST*
D10*
D11*
X163571428Y-122642857D02*
X162571428Y-122285714D01*
X163571428Y-121928571D01*
X162571428Y-120571428D02*
X162571428Y-121428571D01*
X162571428Y-121000000D02*
X164071428Y-121000000D01*
X163857142Y-121142857D01*
X163714285Y-121285714D01*
X163642857Y-121428571D01*
X162714285Y-119928571D02*
X162642857Y-119857142D01*
X162571428Y-119928571D01*
X162642857Y-120000000D01*
X162714285Y-119928571D01*
X162571428Y-119928571D01*
X164071428Y-118928571D02*
X164071428Y-118785714D01*
X164000000Y-118642857D01*
X163928571Y-118571428D01*
X163785714Y-118500000D01*
X163500000Y-118428571D01*
X163142857Y-118428571D01*
X162857142Y-118500000D01*
X162714285Y-118571428D01*
X162642857Y-118642857D01*
X162571428Y-118785714D01*
X162571428Y-118928571D01*
X162642857Y-119071428D01*
X162714285Y-119142857D01*
X162857142Y-119214285D01*
X163142857Y-119285714D01*
X163500000Y-119285714D01*
X163785714Y-119214285D01*
X163928571Y-119142857D01*
X164000000Y-119071428D01*
X164071428Y-118928571D01*
X184075000Y-145914285D02*
X184146428Y-145842857D01*
X184289285Y-145771428D01*
X184432142Y-145771428D01*
X184575000Y-145842857D01*
X184646428Y-145914285D01*
X184717857Y-146057142D01*
X184717857Y-146200000D01*
X184646428Y-146342857D01*
X184575000Y-146414285D01*
X184432142Y-146485714D01*
X184289285Y-146485714D01*
X184146428Y-146414285D01*
X184075000Y-146342857D01*
X184075000Y-145771428D02*
X184075000Y-146342857D01*
X184003571Y-146414285D01*
X183932142Y-146414285D01*
X183789285Y-146342857D01*
X183717857Y-146200000D01*
X183717857Y-145842857D01*
X183860714Y-145628571D01*
X184075000Y-145485714D01*
X184360714Y-145414285D01*
X184646428Y-145485714D01*
X184860714Y-145628571D01*
X185003571Y-145842857D01*
X185075000Y-146128571D01*
X185003571Y-146414285D01*
X184860714Y-146628571D01*
X184646428Y-146771428D01*
X184360714Y-146842857D01*
X184075000Y-146771428D01*
X183860714Y-146628571D01*
X183289285Y-145628571D02*
X182717857Y-145628571D01*
X183075000Y-145128571D02*
X183075000Y-146414285D01*
X183003571Y-146557142D01*
X182860714Y-146628571D01*
X182717857Y-146628571D01*
X182003571Y-146628571D02*
X182146428Y-146557142D01*
X182217857Y-146485714D01*
X182289285Y-146342857D01*
X182289285Y-145914285D01*
X182217857Y-145771428D01*
X182146428Y-145700000D01*
X182003571Y-145628571D01*
X181789285Y-145628571D01*
X181646428Y-145700000D01*
X181575000Y-145771428D01*
X181503571Y-145914285D01*
X181503571Y-146342857D01*
X181575000Y-146485714D01*
X181646428Y-146557142D01*
X181789285Y-146628571D01*
X182003571Y-146628571D01*
X180860714Y-146628571D02*
X180860714Y-145628571D01*
X180860714Y-145771428D02*
X180789285Y-145700000D01*
X180646428Y-145628571D01*
X180432142Y-145628571D01*
X180289285Y-145700000D01*
X180217857Y-145842857D01*
X180217857Y-146628571D01*
X180217857Y-145842857D02*
X180146428Y-145700000D01*
X180003571Y-145628571D01*
X179789285Y-145628571D01*
X179646428Y-145700000D01*
X179575000Y-145842857D01*
X179575000Y-146628571D01*
X179003571Y-146628571D02*
X178217857Y-145628571D01*
X179003571Y-145628571D02*
X178217857Y-146628571D01*
X177003571Y-145628571D02*
X177003571Y-146628571D01*
X177360714Y-145057142D02*
X177717857Y-146128571D01*
X176789285Y-146128571D01*
X175932142Y-145128571D02*
X175789285Y-145128571D01*
X175646428Y-145200000D01*
X175575000Y-145271428D01*
X175503571Y-145414285D01*
X175432142Y-145700000D01*
X175432142Y-146057142D01*
X175503571Y-146342857D01*
X175575000Y-146485714D01*
X175646428Y-146557142D01*
X175789285Y-146628571D01*
X175932142Y-146628571D01*
X176075000Y-146557142D01*
X176146428Y-146485714D01*
X176217857Y-146342857D01*
X176289285Y-146057142D01*
X176289285Y-145700000D01*
X176217857Y-145414285D01*
X176146428Y-145271428D01*
X176075000Y-145200000D01*
X175932142Y-145128571D01*
X174717857Y-146628571D02*
X174432142Y-146628571D01*
X174289285Y-146557142D01*
X174217857Y-146485714D01*
X174075000Y-146271428D01*
X174003571Y-145985714D01*
X174003571Y-145414285D01*
X174075000Y-145271428D01*
X174146428Y-145200000D01*
X174289285Y-145128571D01*
X174575000Y-145128571D01*
X174717857Y-145200000D01*
X174789285Y-145271428D01*
X174860714Y-145414285D01*
X174860714Y-145771428D01*
X174789285Y-145914285D01*
X174717857Y-145985714D01*
X174575000Y-146057142D01*
X174289285Y-146057142D01*
X174146428Y-145985714D01*
X174075000Y-145914285D01*
X174003571Y-145771428D01*
X172717857Y-145128571D02*
X173003571Y-145128571D01*
X173146428Y-145200000D01*
X173217857Y-145271428D01*
X173360714Y-145485714D01*
X173432142Y-145771428D01*
X173432142Y-146342857D01*
X173360714Y-146485714D01*
X173289285Y-146557142D01*
X173146428Y-146628571D01*
X172860714Y-146628571D01*
X172717857Y-146557142D01*
X172646428Y-146485714D01*
X172575000Y-146342857D01*
X172575000Y-145985714D01*
X172646428Y-145842857D01*
X172717857Y-145771428D01*
X172860714Y-145700000D01*
X173146428Y-145700000D01*
X173289285Y-145771428D01*
X173360714Y-145842857D01*
X173432142Y-145985714D01*
D12*
X180192857Y-115695238D02*
X180145238Y-115742857D01*
X180097619Y-115885714D01*
X180097619Y-115980952D01*
X180145238Y-116123809D01*
X180240476Y-116219047D01*
X180335714Y-116266666D01*
X180526190Y-116314285D01*
X180669047Y-116314285D01*
X180859523Y-116266666D01*
X180954761Y-116219047D01*
X181050000Y-116123809D01*
X181097619Y-115980952D01*
X181097619Y-115885714D01*
X181050000Y-115742857D01*
X181002380Y-115695238D01*
X180097619Y-114790476D02*
X180097619Y-115266666D01*
X181097619Y-115266666D01*
X180097619Y-114457142D02*
X181097619Y-114457142D01*
X180097619Y-113885714D02*
X180669047Y-114314285D01*
X181097619Y-113885714D02*
X180526190Y-114457142D01*
X178097619Y-116321428D02*
X179097619Y-116321428D01*
X178383333Y-115988095D01*
X179097619Y-115654761D01*
X178097619Y-115654761D01*
X178097619Y-115178571D02*
X179097619Y-115178571D01*
X178145238Y-114750000D02*
X178097619Y-114607142D01*
X178097619Y-114369047D01*
X178145238Y-114273809D01*
X178192857Y-114226190D01*
X178288095Y-114178571D01*
X178383333Y-114178571D01*
X178478571Y-114226190D01*
X178526190Y-114273809D01*
X178573809Y-114369047D01*
X178621428Y-114559523D01*
X178669047Y-114654761D01*
X178716666Y-114702380D01*
X178811904Y-114750000D01*
X178907142Y-114750000D01*
X179002380Y-114702380D01*
X179050000Y-114654761D01*
X179097619Y-114559523D01*
X179097619Y-114321428D01*
X179050000Y-114178571D01*
X179097619Y-113559523D02*
X179097619Y-113369047D01*
X179050000Y-113273809D01*
X178954761Y-113178571D01*
X178764285Y-113130952D01*
X178430952Y-113130952D01*
X178240476Y-113178571D01*
X178145238Y-113273809D01*
X178097619Y-113369047D01*
X178097619Y-113559523D01*
X178145238Y-113654761D01*
X178240476Y-113750000D01*
X178430952Y-113797619D01*
X178764285Y-113797619D01*
X178954761Y-113750000D01*
X179050000Y-113654761D01*
X179097619Y-113559523D01*
X176097619Y-116321428D02*
X177097619Y-116321428D01*
X176383333Y-115988095D01*
X177097619Y-115654761D01*
X176097619Y-115654761D01*
X177097619Y-114988095D02*
X177097619Y-114797619D01*
X177050000Y-114702380D01*
X176954761Y-114607142D01*
X176764285Y-114559523D01*
X176430952Y-114559523D01*
X176240476Y-114607142D01*
X176145238Y-114702380D01*
X176097619Y-114797619D01*
X176097619Y-114988095D01*
X176145238Y-115083333D01*
X176240476Y-115178571D01*
X176430952Y-115226190D01*
X176764285Y-115226190D01*
X176954761Y-115178571D01*
X177050000Y-115083333D01*
X177097619Y-114988095D01*
X176145238Y-114178571D02*
X176097619Y-114035714D01*
X176097619Y-113797619D01*
X176145238Y-113702380D01*
X176192857Y-113654761D01*
X176288095Y-113607142D01*
X176383333Y-113607142D01*
X176478571Y-113654761D01*
X176526190Y-113702380D01*
X176573809Y-113797619D01*
X176621428Y-113988095D01*
X176669047Y-114083333D01*
X176716666Y-114130952D01*
X176811904Y-114178571D01*
X176907142Y-114178571D01*
X177002380Y-114130952D01*
X177050000Y-114083333D01*
X177097619Y-113988095D01*
X177097619Y-113750000D01*
X177050000Y-113607142D01*
X176097619Y-113178571D02*
X177097619Y-113178571D01*
X174217857Y-115691666D02*
X174170238Y-115739285D01*
X174122619Y-115882142D01*
X174122619Y-115977380D01*
X174170238Y-116120238D01*
X174265476Y-116215476D01*
X174360714Y-116263095D01*
X174551190Y-116310714D01*
X174694047Y-116310714D01*
X174884523Y-116263095D01*
X174979761Y-116215476D01*
X175075000Y-116120238D01*
X175122619Y-115977380D01*
X175122619Y-115882142D01*
X175075000Y-115739285D01*
X175027380Y-115691666D01*
X174170238Y-115310714D02*
X174122619Y-115167857D01*
X174122619Y-114929761D01*
X174170238Y-114834523D01*
X174217857Y-114786904D01*
X174313095Y-114739285D01*
X174408333Y-114739285D01*
X174503571Y-114786904D01*
X174551190Y-114834523D01*
X174598809Y-114929761D01*
X174646428Y-115120238D01*
X174694047Y-115215476D01*
X174741666Y-115263095D01*
X174836904Y-115310714D01*
X174932142Y-115310714D01*
X175027380Y-115263095D01*
X175075000Y-115215476D01*
X175122619Y-115120238D01*
X175122619Y-114882142D01*
X175075000Y-114739285D01*
X173275000Y-135550000D02*
X173275000Y-136400000D01*
X173275000Y-136400000D02*
X174125000Y-136400000D01*
X173275000Y-122950000D02*
X173275000Y-122100000D01*
X173275000Y-122100000D02*
X174125000Y-122100000D01*
D13*
G36*
X171265704Y-114552644D02*
X171007369Y-114385577D01*
X170429326Y-114678514D01*
X169706143Y-115206945D01*
X168914091Y-115760916D01*
X168348136Y-116067402D01*
X168255430Y-116088889D01*
X167806718Y-115905695D01*
X167023645Y-115444516D01*
X166663108Y-115206945D01*
X165720566Y-114592483D01*
X165215474Y-114387181D01*
X165012175Y-114588673D01*
X164975000Y-115177521D01*
X165284987Y-116069893D01*
X165894493Y-116699845D01*
X166813986Y-117369649D01*
X165894493Y-117972124D01*
X165139469Y-118783382D01*
X164975000Y-119448411D01*
X165038673Y-120108191D01*
X165158953Y-120322222D01*
X165535478Y-120143893D01*
X166287641Y-119690028D01*
X166775980Y-119373858D01*
X167519542Y-118891827D01*
X168060259Y-118669449D01*
X168596012Y-118733791D01*
X169324683Y-119111922D01*
X170444152Y-119830911D01*
X170531250Y-119887549D01*
X171089603Y-120196425D01*
X171295972Y-120016292D01*
X171325000Y-119364074D01*
X171092398Y-118408669D01*
X170417007Y-117838837D01*
X169509015Y-117352894D01*
X170417007Y-116691468D01*
X171126280Y-115885906D01*
X171325000Y-115177521D01*
X171265704Y-114552644D01*
X171265704Y-114552644D01*
G37*
X171265704Y-114552644D02*
X171007369Y-114385577D01*
X170429326Y-114678514D01*
X169706143Y-115206945D01*
X168914091Y-115760916D01*
X168348136Y-116067402D01*
X168255430Y-116088889D01*
X167806718Y-115905695D01*
X167023645Y-115444516D01*
X166663108Y-115206945D01*
X165720566Y-114592483D01*
X165215474Y-114387181D01*
X165012175Y-114588673D01*
X164975000Y-115177521D01*
X165284987Y-116069893D01*
X165894493Y-116699845D01*
X166813986Y-117369649D01*
X165894493Y-117972124D01*
X165139469Y-118783382D01*
X164975000Y-119448411D01*
X165038673Y-120108191D01*
X165158953Y-120322222D01*
X165535478Y-120143893D01*
X166287641Y-119690028D01*
X166775980Y-119373858D01*
X167519542Y-118891827D01*
X168060259Y-118669449D01*
X168596012Y-118733791D01*
X169324683Y-119111922D01*
X170444152Y-119830911D01*
X170531250Y-119887549D01*
X171089603Y-120196425D01*
X171295972Y-120016292D01*
X171325000Y-119364074D01*
X171092398Y-118408669D01*
X170417007Y-117838837D01*
X169509015Y-117352894D01*
X170417007Y-116691468D01*
X171126280Y-115885906D01*
X171325000Y-115177521D01*
X171265704Y-114552644D01*
G36*
X171299256Y-121962243D02*
X171186167Y-121323444D01*
X170931948Y-121066691D01*
X170619445Y-121027778D01*
X170133161Y-121165896D01*
X169936952Y-121705093D01*
X169913889Y-122262500D01*
X169799140Y-123175721D01*
X169432917Y-123494990D01*
X169384722Y-123497222D01*
X168964614Y-123181688D01*
X168855556Y-122438889D01*
X168744679Y-121664222D01*
X168332131Y-121391474D01*
X168150000Y-121380556D01*
X167633555Y-121546871D01*
X167451723Y-122165693D01*
X167444445Y-122438889D01*
X167302298Y-123281833D01*
X166973937Y-123537135D01*
X166606480Y-123239005D01*
X166347042Y-122421651D01*
X166319212Y-122177240D01*
X166102752Y-121171797D01*
X165642726Y-120751662D01*
X165592361Y-120740261D01*
X165258989Y-120763340D01*
X165071666Y-121086632D01*
X164990448Y-121852603D01*
X164975000Y-122942189D01*
X164975000Y-125261111D01*
X171325000Y-125261111D01*
X171325000Y-123144445D01*
X171299256Y-121962243D01*
X171299256Y-121962243D01*
G37*
X171299256Y-121962243D02*
X171186167Y-121323444D01*
X170931948Y-121066691D01*
X170619445Y-121027778D01*
X170133161Y-121165896D01*
X169936952Y-121705093D01*
X169913889Y-122262500D01*
X169799140Y-123175721D01*
X169432917Y-123494990D01*
X169384722Y-123497222D01*
X168964614Y-123181688D01*
X168855556Y-122438889D01*
X168744679Y-121664222D01*
X168332131Y-121391474D01*
X168150000Y-121380556D01*
X167633555Y-121546871D01*
X167451723Y-122165693D01*
X167444445Y-122438889D01*
X167302298Y-123281833D01*
X166973937Y-123537135D01*
X166606480Y-123239005D01*
X166347042Y-122421651D01*
X166319212Y-122177240D01*
X166102752Y-121171797D01*
X165642726Y-120751662D01*
X165592361Y-120740261D01*
X165258989Y-120763340D01*
X165071666Y-121086632D01*
X164990448Y-121852603D01*
X164975000Y-122942189D01*
X164975000Y-125261111D01*
X171325000Y-125261111D01*
X171325000Y-123144445D01*
X171299256Y-121962243D01*
G36*
X171157931Y-127834011D02*
X170682523Y-126834277D01*
X169937478Y-126421488D01*
X169077249Y-126587391D01*
X168317643Y-126775693D01*
X167709724Y-126432472D01*
X167658328Y-126382138D01*
X167176009Y-126009476D01*
X166676052Y-126050112D01*
X166112285Y-126334688D01*
X165573377Y-126708874D01*
X165267767Y-127206424D01*
X165114048Y-128035886D01*
X165046361Y-129065359D01*
X164941333Y-131258334D01*
X166713022Y-131258334D01*
X166713022Y-129494445D01*
X166190324Y-129272715D01*
X166104355Y-128789392D01*
X166431156Y-128317269D01*
X166831135Y-128149712D01*
X167333275Y-128279700D01*
X167444445Y-128763022D01*
X167212017Y-129366147D01*
X166713022Y-129494445D01*
X166713022Y-131258334D01*
X169573523Y-131258334D01*
X169573523Y-129494445D01*
X169002289Y-129247518D01*
X168861790Y-128720853D01*
X169190633Y-128270662D01*
X169589810Y-128373006D01*
X169908601Y-128779008D01*
X170106047Y-129319498D01*
X169791242Y-129487675D01*
X169573523Y-129494445D01*
X169573523Y-131258334D01*
X171325000Y-131258334D01*
X171325000Y-129372732D01*
X171157931Y-127834011D01*
X171157931Y-127834011D01*
G37*
X171157931Y-127834011D02*
X170682523Y-126834277D01*
X169937478Y-126421488D01*
X169077249Y-126587391D01*
X168317643Y-126775693D01*
X167709724Y-126432472D01*
X167658328Y-126382138D01*
X167176009Y-126009476D01*
X166676052Y-126050112D01*
X166112285Y-126334688D01*
X165573377Y-126708874D01*
X165267767Y-127206424D01*
X165114048Y-128035886D01*
X165046361Y-129065359D01*
X164941333Y-131258334D01*
X166713022Y-131258334D01*
X166713022Y-129494445D01*
X166190324Y-129272715D01*
X166104355Y-128789392D01*
X166431156Y-128317269D01*
X166831135Y-128149712D01*
X167333275Y-128279700D01*
X167444445Y-128763022D01*
X167212017Y-129366147D01*
X166713022Y-129494445D01*
X166713022Y-131258334D01*
X169573523Y-131258334D01*
X169573523Y-129494445D01*
X169002289Y-129247518D01*
X168861790Y-128720853D01*
X169190633Y-128270662D01*
X169589810Y-128373006D01*
X169908601Y-128779008D01*
X170106047Y-129319498D01*
X169791242Y-129487675D01*
X169573523Y-129494445D01*
X169573523Y-131258334D01*
X171325000Y-131258334D01*
X171325000Y-129372732D01*
X171157931Y-127834011D01*
G36*
X171321695Y-132378003D02*
X171227307Y-132118737D01*
X170915126Y-132024921D01*
X170258443Y-132086548D01*
X169130546Y-132293611D01*
X167885417Y-132541058D01*
X166468154Y-132834285D01*
X165606480Y-133072295D01*
X165162414Y-133329378D01*
X164997976Y-133679826D01*
X164975000Y-134108072D01*
X165056747Y-134749856D01*
X165428753Y-135115472D01*
X166281171Y-135370249D01*
X166474306Y-135411662D01*
X167973611Y-135725956D01*
X166474306Y-136193818D01*
X165521872Y-136556774D01*
X165082606Y-136967596D01*
X164975017Y-137597683D01*
X164975000Y-137609759D01*
X165021524Y-138098909D01*
X165256711Y-138433568D01*
X165823981Y-138696448D01*
X166866755Y-138970260D01*
X167630860Y-139141419D01*
X169261578Y-139487387D01*
X170326036Y-139661168D01*
X170944209Y-139654547D01*
X171236073Y-139459311D01*
X171321604Y-139067245D01*
X171325000Y-138888504D01*
X171243173Y-138381975D01*
X170881687Y-138084026D01*
X170066539Y-137890939D01*
X169519929Y-137812557D01*
X168405658Y-137613448D01*
X167996866Y-137405083D01*
X168293530Y-137187084D01*
X169295628Y-136959073D01*
X169469021Y-136930088D01*
X170354639Y-136711762D01*
X170730536Y-136341374D01*
X170795833Y-135838460D01*
X170691739Y-135266095D01*
X170260570Y-134901293D01*
X169323995Y-134601924D01*
X169208333Y-134573214D01*
X167620833Y-134183928D01*
X169472917Y-133922749D01*
X170558619Y-133733813D01*
X171113002Y-133495533D01*
X171308245Y-133104716D01*
X171325000Y-132812730D01*
X171321695Y-132378003D01*
X171321695Y-132378003D01*
G37*
X171321695Y-132378003D02*
X171227307Y-132118737D01*
X170915126Y-132024921D01*
X170258443Y-132086548D01*
X169130546Y-132293611D01*
X167885417Y-132541058D01*
X166468154Y-132834285D01*
X165606480Y-133072295D01*
X165162414Y-133329378D01*
X164997976Y-133679826D01*
X164975000Y-134108072D01*
X165056747Y-134749856D01*
X165428753Y-135115472D01*
X166281171Y-135370249D01*
X166474306Y-135411662D01*
X167973611Y-135725956D01*
X166474306Y-136193818D01*
X165521872Y-136556774D01*
X165082606Y-136967596D01*
X164975017Y-137597683D01*
X164975000Y-137609759D01*
X165021524Y-138098909D01*
X165256711Y-138433568D01*
X165823981Y-138696448D01*
X166866755Y-138970260D01*
X167630860Y-139141419D01*
X169261578Y-139487387D01*
X170326036Y-139661168D01*
X170944209Y-139654547D01*
X171236073Y-139459311D01*
X171321604Y-139067245D01*
X171325000Y-138888504D01*
X171243173Y-138381975D01*
X170881687Y-138084026D01*
X170066539Y-137890939D01*
X169519929Y-137812557D01*
X168405658Y-137613448D01*
X167996866Y-137405083D01*
X168293530Y-137187084D01*
X169295628Y-136959073D01*
X169469021Y-136930088D01*
X170354639Y-136711762D01*
X170730536Y-136341374D01*
X170795833Y-135838460D01*
X170691739Y-135266095D01*
X170260570Y-134901293D01*
X169323995Y-134601924D01*
X169208333Y-134573214D01*
X167620833Y-134183928D01*
X169472917Y-133922749D01*
X170558619Y-133733813D01*
X171113002Y-133495533D01*
X171308245Y-133104716D01*
X171325000Y-132812730D01*
X171321695Y-132378003D01*
G36*
X171290638Y-140858036D02*
X171086803Y-140595100D01*
X170562373Y-140471898D01*
X169566226Y-140436639D01*
X168767361Y-140435958D01*
X167258167Y-140466799D01*
X166281693Y-140591272D01*
X165665928Y-140868912D01*
X165238860Y-141359256D01*
X165027812Y-141730280D01*
X164647493Y-143051262D01*
X164846543Y-144297627D01*
X165327778Y-145016667D01*
X165836982Y-145396195D01*
X166542863Y-145613208D01*
X167635120Y-145707643D01*
X168679167Y-145722222D01*
X170024949Y-145711231D01*
X170813815Y-145645231D01*
X171194383Y-145474683D01*
X171315274Y-145150047D01*
X171325000Y-144840278D01*
X171288080Y-144377374D01*
X171074220Y-144113577D01*
X170528774Y-143992990D01*
X169497095Y-143959717D01*
X168884954Y-143958333D01*
X167340802Y-143893286D01*
X166481322Y-143697138D01*
X166291087Y-143517361D01*
X166204303Y-142871245D01*
X166548284Y-142465498D01*
X167411872Y-142254953D01*
X168883910Y-142194446D01*
X168893299Y-142194445D01*
X170171308Y-142180991D01*
X170898716Y-142103173D01*
X171230428Y-141904810D01*
X171321352Y-141529720D01*
X171325000Y-141312500D01*
X171290638Y-140858036D01*
X171290638Y-140858036D01*
G37*
X171290638Y-140858036D02*
X171086803Y-140595100D01*
X170562373Y-140471898D01*
X169566226Y-140436639D01*
X168767361Y-140435958D01*
X167258167Y-140466799D01*
X166281693Y-140591272D01*
X165665928Y-140868912D01*
X165238860Y-141359256D01*
X165027812Y-141730280D01*
X164647493Y-143051262D01*
X164846543Y-144297627D01*
X165327778Y-145016667D01*
X165836982Y-145396195D01*
X166542863Y-145613208D01*
X167635120Y-145707643D01*
X168679167Y-145722222D01*
X170024949Y-145711231D01*
X170813815Y-145645231D01*
X171194383Y-145474683D01*
X171315274Y-145150047D01*
X171325000Y-144840278D01*
X171288080Y-144377374D01*
X171074220Y-144113577D01*
X170528774Y-143992990D01*
X169497095Y-143959717D01*
X168884954Y-143958333D01*
X167340802Y-143893286D01*
X166481322Y-143697138D01*
X166291087Y-143517361D01*
X166204303Y-142871245D01*
X166548284Y-142465498D01*
X167411872Y-142254953D01*
X168883910Y-142194446D01*
X168893299Y-142194445D01*
X170171308Y-142180991D01*
X170898716Y-142103173D01*
X171230428Y-141904810D01*
X171321352Y-141529720D01*
X171325000Y-141312500D01*
X171290638Y-140858036D01*
D12*
X185761904Y-120202380D02*
X185761904Y-121011904D01*
X185714285Y-121107142D01*
X185666666Y-121154761D01*
X185571428Y-121202380D01*
X185380952Y-121202380D01*
X185285714Y-121154761D01*
X185238095Y-121107142D01*
X185190476Y-121011904D01*
X185190476Y-120202380D01*
X184761904Y-120297619D02*
X184714285Y-120250000D01*
X184619047Y-120202380D01*
X184380952Y-120202380D01*
X184285714Y-120250000D01*
X184238095Y-120297619D01*
X184190476Y-120392857D01*
X184190476Y-120488095D01*
X184238095Y-120630952D01*
X184809523Y-121202380D01*
X184190476Y-121202380D01*
M02*
