G04 #@! TF.GenerationSoftware,KiCad,Pcbnew,no-vcs-found-33e0758~58~ubuntu16.04.1*
G04 #@! TF.CreationDate,2018-02-07T18:59:58+01:00*
G04 #@! TF.ProjectId,ultrawidebridge,756C747261776964656272696467652E,rev?*
G04 #@! TF.FileFunction,Soldermask,Top*
G04 #@! TF.FilePolarity,Negative*
%FSLAX46Y46*%
G04 Gerber Fmt 4.6, Leading zero omitted, Abs format (unit mm)*
G04 Created by KiCad (PCBNEW no-vcs-found-33e0758~58~ubuntu16.04.1) date Wed Feb  7 18:59:58 2018*
%MOMM*%
%LPD*%
G01*
G04 APERTURE LIST*
%ADD10C,0.100000*%
%ADD11C,4.800000*%
%ADD12R,1.900000X0.950000*%
%ADD13R,0.950000X1.900000*%
%ADD14R,2.300000X1.900000*%
%ADD15C,1.850000*%
%ADD16R,1.750000X0.800000*%
%ADD17O,2.300000X1.600000*%
%ADD18R,2.300000X1.600000*%
%ADD19R,1.150000X1.200000*%
%ADD20R,1.200000X1.150000*%
%ADD21R,1.200000X1.200000*%
%ADD22O,1.750000X1.750000*%
%ADD23R,1.750000X1.750000*%
%ADD24R,1.300000X1.400000*%
%ADD25R,0.900000X1.300000*%
%ADD26R,1.300000X0.900000*%
%ADD27R,1.460000X1.050000*%
%ADD28R,0.800000X2.500000*%
G04 APERTURE END LIST*
D10*
D11*
X162250000Y-144750000D03*
D12*
X170800000Y-125750000D03*
X170800000Y-126550000D03*
X170800000Y-127350000D03*
X170800000Y-128150000D03*
X170800000Y-128950000D03*
X170800000Y-129750000D03*
X170800000Y-130550000D03*
X170800000Y-131350000D03*
X170800000Y-132150000D03*
X170800000Y-132950000D03*
X170800000Y-133750000D03*
D13*
X172500000Y-135450000D03*
X173300000Y-135450000D03*
X174100000Y-135450000D03*
X174900000Y-135450000D03*
X175700000Y-135450000D03*
X176500000Y-135450000D03*
X177300000Y-135450000D03*
X178100000Y-135450000D03*
X178900000Y-135450000D03*
X179700000Y-135450000D03*
X180500000Y-135450000D03*
D12*
X182200000Y-133750000D03*
X182200000Y-132950000D03*
X182200000Y-132150000D03*
X182200000Y-131350000D03*
X182200000Y-130550000D03*
X182200000Y-129750000D03*
X182200000Y-128950000D03*
X182200000Y-128150000D03*
X182200000Y-127350000D03*
X182200000Y-126550000D03*
X182200000Y-125750000D03*
D13*
X180500000Y-124050000D03*
X179700000Y-124050000D03*
X178900000Y-124050000D03*
X178100000Y-124050000D03*
X177300000Y-124050000D03*
X176500000Y-124050000D03*
X175700000Y-124050000D03*
X174900000Y-124050000D03*
X174100000Y-124050000D03*
X173300000Y-124050000D03*
X172500000Y-124050000D03*
D14*
X161050000Y-129000000D03*
D15*
X163750000Y-125500000D03*
D16*
X163750000Y-127350000D03*
X163750000Y-126700000D03*
X163750000Y-129300000D03*
X163750000Y-128650000D03*
X163750000Y-128000000D03*
D15*
X163750000Y-130500000D03*
D14*
X161050000Y-127000000D03*
D17*
X161050000Y-124500000D03*
X161050000Y-131500000D03*
D18*
X161050000Y-130900000D03*
X161050000Y-125100000D03*
D19*
X165500000Y-140750000D03*
X165500000Y-142250000D03*
D20*
X162250000Y-132750000D03*
X163750000Y-132750000D03*
D19*
X182750000Y-137750000D03*
X182750000Y-136250000D03*
D20*
X167500000Y-131250000D03*
X166000000Y-131250000D03*
D21*
X169500000Y-136450000D03*
X169500000Y-138050000D03*
X161925000Y-122650000D03*
X163525000Y-122650000D03*
X161925000Y-120300000D03*
X163525000Y-120300000D03*
D22*
X181550000Y-119600000D03*
X179550000Y-119600000D03*
X177550000Y-119600000D03*
X175550000Y-119600000D03*
X173550000Y-119600000D03*
X171550000Y-119600000D03*
X169550000Y-119600000D03*
D23*
X167550000Y-119600000D03*
D22*
X181250000Y-141250000D03*
X179250000Y-141250000D03*
X177250000Y-141250000D03*
X175250000Y-141250000D03*
X173250000Y-141250000D03*
X171250000Y-141250000D03*
X169250000Y-141250000D03*
D23*
X167250000Y-141250000D03*
D22*
X160750000Y-141000000D03*
X160750000Y-139000000D03*
X160750000Y-137000000D03*
D23*
X160750000Y-135000000D03*
D24*
X167050000Y-136000000D03*
X167050000Y-134400000D03*
X162950000Y-136000000D03*
X162950000Y-134400000D03*
D25*
X167500000Y-127000000D03*
X166000000Y-127000000D03*
X166000000Y-128500000D03*
X167500000Y-128500000D03*
D26*
X163750000Y-138500000D03*
X163750000Y-140000000D03*
D25*
X169250000Y-135000000D03*
X170750000Y-135000000D03*
X166750000Y-125000000D03*
X165250000Y-125000000D03*
X165250000Y-121500000D03*
X166750000Y-121500000D03*
D27*
X165400000Y-137550000D03*
X165400000Y-138500000D03*
X165400000Y-139450000D03*
X167600000Y-139450000D03*
X167600000Y-137550000D03*
D28*
X175300000Y-138500000D03*
X176500000Y-138500000D03*
X177700000Y-138500000D03*
D11*
X162250000Y-115500000D03*
M02*
