G04 #@! TF.GenerationSoftware,KiCad,Pcbnew,no-vcs-found-33e0758~58~ubuntu16.04.1*
G04 #@! TF.CreationDate,2018-02-07T18:59:58+01:00*
G04 #@! TF.ProjectId,ultrawidebridge,756C747261776964656272696467652E,rev?*
G04 #@! TF.FileFunction,Paste,Top*
G04 #@! TF.FilePolarity,Positive*
%FSLAX46Y46*%
G04 Gerber Fmt 4.6, Leading zero omitted, Abs format (unit mm)*
G04 Created by KiCad (PCBNEW no-vcs-found-33e0758~58~ubuntu16.04.1) date Wed Feb  7 18:59:58 2018*
%MOMM*%
%LPD*%
G01*
G04 APERTURE LIST*
%ADD10C,0.100000*%
%ADD11R,1.500000X0.550000*%
%ADD12R,0.550000X1.500000*%
%ADD13R,1.900000X1.500000*%
%ADD14R,1.350000X0.400000*%
%ADD15R,0.750000X0.800000*%
%ADD16R,0.800000X0.750000*%
%ADD17R,0.800000X0.800000*%
%ADD18R,0.900000X1.000000*%
%ADD19R,0.500000X0.900000*%
%ADD20R,0.900000X0.500000*%
%ADD21R,1.060000X0.650000*%
%ADD22R,0.400000X2.100000*%
G04 APERTURE END LIST*
D10*
D11*
X170800000Y-125750000D03*
X170800000Y-126550000D03*
X170800000Y-127350000D03*
X170800000Y-128150000D03*
X170800000Y-128950000D03*
X170800000Y-129750000D03*
X170800000Y-130550000D03*
X170800000Y-131350000D03*
X170800000Y-132150000D03*
X170800000Y-132950000D03*
X170800000Y-133750000D03*
D12*
X172500000Y-135450000D03*
X173300000Y-135450000D03*
X174100000Y-135450000D03*
X174900000Y-135450000D03*
X175700000Y-135450000D03*
X176500000Y-135450000D03*
X177300000Y-135450000D03*
X178100000Y-135450000D03*
X178900000Y-135450000D03*
X179700000Y-135450000D03*
X180500000Y-135450000D03*
D11*
X182200000Y-133750000D03*
X182200000Y-132950000D03*
X182200000Y-132150000D03*
X182200000Y-131350000D03*
X182200000Y-130550000D03*
X182200000Y-129750000D03*
X182200000Y-128950000D03*
X182200000Y-128150000D03*
X182200000Y-127350000D03*
X182200000Y-126550000D03*
X182200000Y-125750000D03*
D12*
X180500000Y-124050000D03*
X179700000Y-124050000D03*
X178900000Y-124050000D03*
X178100000Y-124050000D03*
X177300000Y-124050000D03*
X176500000Y-124050000D03*
X175700000Y-124050000D03*
X174900000Y-124050000D03*
X174100000Y-124050000D03*
X173300000Y-124050000D03*
X172500000Y-124050000D03*
D13*
X161050000Y-129000000D03*
D14*
X163750000Y-127350000D03*
X163750000Y-126700000D03*
X163750000Y-129300000D03*
X163750000Y-128650000D03*
X163750000Y-128000000D03*
D13*
X161050000Y-127000000D03*
D15*
X165500000Y-140750000D03*
X165500000Y-142250000D03*
D16*
X162250000Y-132750000D03*
X163750000Y-132750000D03*
D15*
X182750000Y-137750000D03*
X182750000Y-136250000D03*
D16*
X167500000Y-131250000D03*
X166000000Y-131250000D03*
D17*
X169500000Y-136450000D03*
X169500000Y-138050000D03*
X161925000Y-122650000D03*
X163525000Y-122650000D03*
X161925000Y-120300000D03*
X163525000Y-120300000D03*
D18*
X167050000Y-136000000D03*
X167050000Y-134400000D03*
X162950000Y-136000000D03*
X162950000Y-134400000D03*
D19*
X167500000Y-127000000D03*
X166000000Y-127000000D03*
X166000000Y-128500000D03*
X167500000Y-128500000D03*
D20*
X163750000Y-138500000D03*
X163750000Y-140000000D03*
D19*
X169250000Y-135000000D03*
X170750000Y-135000000D03*
X166750000Y-125000000D03*
X165250000Y-125000000D03*
X165250000Y-121500000D03*
X166750000Y-121500000D03*
D21*
X165400000Y-137550000D03*
X165400000Y-138500000D03*
X165400000Y-139450000D03*
X167600000Y-139450000D03*
X167600000Y-137550000D03*
D22*
X175300000Y-138500000D03*
X176500000Y-138500000D03*
X177700000Y-138500000D03*
M02*
