G04 #@! TF.GenerationSoftware,KiCad,Pcbnew,no-vcs-found-33e0758~58~ubuntu16.04.1*
G04 #@! TF.CreationDate,2018-02-07T18:59:58+01:00*
G04 #@! TF.ProjectId,ultrawidebridge,756C747261776964656272696467652E,rev?*
G04 #@! TF.FileFunction,Copper,L1,Top,Signal*
G04 #@! TF.FilePolarity,Positive*
%FSLAX46Y46*%
G04 Gerber Fmt 4.6, Leading zero omitted, Abs format (unit mm)*
G04 Created by KiCad (PCBNEW no-vcs-found-33e0758~58~ubuntu16.04.1) date Wed Feb  7 18:59:58 2018*
%MOMM*%
%LPD*%
G01*
G04 APERTURE LIST*
%ADD10C,0.100000*%
%ADD11C,4.400000*%
%ADD12R,1.500000X0.550000*%
%ADD13R,0.550000X1.500000*%
%ADD14R,1.900000X1.500000*%
%ADD15C,1.450000*%
%ADD16R,1.350000X0.400000*%
%ADD17O,1.900000X1.200000*%
%ADD18R,1.900000X1.200000*%
%ADD19R,0.750000X0.800000*%
%ADD20R,0.800000X0.750000*%
%ADD21R,0.800000X0.800000*%
%ADD22O,1.350000X1.350000*%
%ADD23R,1.350000X1.350000*%
%ADD24R,0.900000X1.000000*%
%ADD25R,0.500000X0.900000*%
%ADD26R,0.900000X0.500000*%
%ADD27R,1.060000X0.650000*%
%ADD28R,0.400000X2.100000*%
%ADD29C,0.800000*%
%ADD30C,0.250000*%
%ADD31C,0.254000*%
G04 APERTURE END LIST*
D10*
D11*
X162250000Y-144750000D03*
D12*
X170800000Y-125750000D03*
X170800000Y-126550000D03*
X170800000Y-127350000D03*
X170800000Y-128150000D03*
X170800000Y-128950000D03*
X170800000Y-129750000D03*
X170800000Y-130550000D03*
X170800000Y-131350000D03*
X170800000Y-132150000D03*
X170800000Y-132950000D03*
X170800000Y-133750000D03*
D13*
X172500000Y-135450000D03*
X173300000Y-135450000D03*
X174100000Y-135450000D03*
X174900000Y-135450000D03*
X175700000Y-135450000D03*
X176500000Y-135450000D03*
X177300000Y-135450000D03*
X178100000Y-135450000D03*
X178900000Y-135450000D03*
X179700000Y-135450000D03*
X180500000Y-135450000D03*
D12*
X182200000Y-133750000D03*
X182200000Y-132950000D03*
X182200000Y-132150000D03*
X182200000Y-131350000D03*
X182200000Y-130550000D03*
X182200000Y-129750000D03*
X182200000Y-128950000D03*
X182200000Y-128150000D03*
X182200000Y-127350000D03*
X182200000Y-126550000D03*
X182200000Y-125750000D03*
D13*
X180500000Y-124050000D03*
X179700000Y-124050000D03*
X178900000Y-124050000D03*
X178100000Y-124050000D03*
X177300000Y-124050000D03*
X176500000Y-124050000D03*
X175700000Y-124050000D03*
X174900000Y-124050000D03*
X174100000Y-124050000D03*
X173300000Y-124050000D03*
X172500000Y-124050000D03*
D14*
X161050000Y-129000000D03*
D15*
X163750000Y-125500000D03*
D16*
X163750000Y-127350000D03*
X163750000Y-126700000D03*
X163750000Y-129300000D03*
X163750000Y-128650000D03*
X163750000Y-128000000D03*
D15*
X163750000Y-130500000D03*
D14*
X161050000Y-127000000D03*
D17*
X161050000Y-124500000D03*
X161050000Y-131500000D03*
D18*
X161050000Y-130900000D03*
X161050000Y-125100000D03*
D19*
X165500000Y-140750000D03*
X165500000Y-142250000D03*
D20*
X162250000Y-132750000D03*
X163750000Y-132750000D03*
D19*
X182750000Y-137750000D03*
X182750000Y-136250000D03*
D20*
X167500000Y-131250000D03*
X166000000Y-131250000D03*
D21*
X169500000Y-136450000D03*
X169500000Y-138050000D03*
X161925000Y-122650000D03*
X163525000Y-122650000D03*
X161925000Y-120300000D03*
X163525000Y-120300000D03*
D22*
X181550000Y-119600000D03*
X179550000Y-119600000D03*
X177550000Y-119600000D03*
X175550000Y-119600000D03*
X173550000Y-119600000D03*
X171550000Y-119600000D03*
X169550000Y-119600000D03*
D23*
X167550000Y-119600000D03*
D22*
X181250000Y-141250000D03*
X179250000Y-141250000D03*
X177250000Y-141250000D03*
X175250000Y-141250000D03*
X173250000Y-141250000D03*
X171250000Y-141250000D03*
X169250000Y-141250000D03*
D23*
X167250000Y-141250000D03*
D22*
X160750000Y-141000000D03*
X160750000Y-139000000D03*
X160750000Y-137000000D03*
D23*
X160750000Y-135000000D03*
D24*
X167050000Y-136000000D03*
X167050000Y-134400000D03*
X162950000Y-136000000D03*
X162950000Y-134400000D03*
D25*
X167500000Y-127000000D03*
X166000000Y-127000000D03*
X166000000Y-128500000D03*
X167500000Y-128500000D03*
D26*
X163750000Y-138500000D03*
X163750000Y-140000000D03*
D25*
X169250000Y-135000000D03*
X170750000Y-135000000D03*
X166750000Y-125000000D03*
X165250000Y-125000000D03*
X165250000Y-121500000D03*
X166750000Y-121500000D03*
D27*
X165400000Y-137550000D03*
X165400000Y-138500000D03*
X165400000Y-139450000D03*
X167600000Y-139450000D03*
X167600000Y-137550000D03*
D28*
X175300000Y-138500000D03*
X176500000Y-138500000D03*
X177700000Y-138500000D03*
D11*
X162250000Y-115500000D03*
D29*
X183750000Y-125250000D03*
X183500000Y-132750000D03*
X183250000Y-140000000D03*
X166000000Y-123250000D03*
X168750000Y-131250000D03*
X173500000Y-137500000D03*
X182500000Y-139000000D03*
X162000000Y-133750000D03*
X162250000Y-137250000D03*
X165250000Y-134500000D03*
X168750000Y-132500000D03*
X164750000Y-136750000D03*
X164750000Y-132250000D03*
X165000000Y-126250000D03*
X168750000Y-121750000D03*
X170000000Y-121500000D03*
X184000000Y-142000000D03*
X181500000Y-139250000D03*
X180500000Y-139250000D03*
X180000000Y-138000000D03*
X179000000Y-138250000D03*
X162500000Y-140000000D03*
X165750000Y-136000000D03*
X171250000Y-137250000D03*
X167500000Y-125500000D03*
X168000000Y-122750000D03*
X183750000Y-127750000D03*
X183750000Y-126500000D03*
X179750000Y-133250000D03*
X179000000Y-132500000D03*
X179000000Y-131250000D03*
X180750000Y-132750000D03*
X176500000Y-129500000D03*
X178500000Y-129500000D03*
X179000000Y-127750000D03*
X179750000Y-126250000D03*
D30*
X168000000Y-133250000D02*
X167500000Y-132750000D01*
X168000000Y-137250000D02*
X168000000Y-133250000D01*
X167500000Y-132750000D02*
X167500000Y-131250000D01*
X168750000Y-131250000D02*
X167500000Y-131250000D01*
X164250000Y-141250000D02*
X160750000Y-141250000D01*
X160750000Y-141250000D02*
X160750000Y-141000000D01*
X165500000Y-140750000D02*
X164750000Y-140750000D01*
X164750000Y-140750000D02*
X164250000Y-141250000D01*
X165500000Y-140750000D02*
X165750000Y-140750000D01*
X165750000Y-140750000D02*
X166500000Y-140000000D01*
X166500000Y-140000000D02*
X166500000Y-138750000D01*
X166500000Y-138750000D02*
X167750000Y-137500000D01*
X167750000Y-137500000D02*
X167600000Y-137550000D01*
X183750000Y-137500000D02*
X183750000Y-136950002D01*
X183750000Y-136950002D02*
X183500000Y-136700002D01*
X183250000Y-140000000D02*
X183750000Y-139500000D01*
X183750000Y-139500000D02*
X183750000Y-137500000D01*
X182750000Y-136250000D02*
X183049998Y-136250000D01*
X183049998Y-136250000D02*
X183500000Y-136700002D01*
X183500000Y-133250000D02*
X183500000Y-135500000D01*
X182750000Y-133000000D02*
X183250000Y-133000000D01*
X183500000Y-133250000D02*
X183250000Y-133000000D01*
X183500000Y-135500000D02*
X182750000Y-136250000D01*
X182200000Y-132950000D02*
X183300000Y-132950000D01*
X183300000Y-132950000D02*
X183500000Y-132750000D01*
X182750000Y-133000000D02*
X182200000Y-132950000D01*
X183250000Y-140000000D02*
X183000000Y-140000000D01*
X182500000Y-133000000D02*
X182200000Y-132950000D01*
X168750000Y-131250000D02*
X168750000Y-130500000D01*
X168750000Y-130500000D02*
X169500000Y-129750000D01*
X169500000Y-129750000D02*
X170000000Y-129750000D01*
X168750000Y-130500000D02*
X168500000Y-130250000D01*
X168750000Y-131250000D02*
X168750000Y-131000000D01*
X169750000Y-129750000D02*
X170000000Y-129750000D01*
X170000000Y-129750000D02*
X170500000Y-129750000D01*
X180500000Y-124050000D02*
X182550000Y-124050000D01*
X182550000Y-124050000D02*
X183750000Y-125250000D01*
X174100000Y-136900000D02*
X173500000Y-137500000D01*
X174100000Y-136900000D02*
X174100000Y-135450000D01*
X174000000Y-135500000D02*
X174100000Y-135450000D01*
X167500000Y-124250000D02*
X166750000Y-123500000D01*
X166750000Y-123500000D02*
X166250000Y-123500000D01*
X166250000Y-123500000D02*
X166000000Y-123250000D01*
X167500000Y-124250000D02*
X172500000Y-124250000D01*
X166000000Y-123250000D02*
X166250000Y-123500000D01*
X172500000Y-124250000D02*
X172500000Y-124050000D01*
X180500000Y-124500000D02*
X180500000Y-124050000D01*
X183750000Y-125250000D02*
X183250000Y-125750000D01*
X183250000Y-125750000D02*
X182250000Y-125750000D01*
X182250000Y-125750000D02*
X182200000Y-125750000D01*
X170500000Y-129750000D02*
X170800000Y-129750000D01*
X168000000Y-137250000D02*
X167750000Y-137500000D01*
X167750000Y-137500000D02*
X167600000Y-137550000D01*
X160750000Y-141000000D02*
X161000000Y-141000000D01*
X167000000Y-129500000D02*
X168250000Y-129500000D01*
X166750000Y-129250000D02*
X167000000Y-129500000D01*
X168250000Y-129500000D02*
X168500000Y-129250000D01*
X165250000Y-129500000D02*
X165250000Y-130500000D01*
X165250000Y-130500000D02*
X166000000Y-131250000D01*
X182750000Y-137750000D02*
X182750000Y-138750000D01*
X182750000Y-138750000D02*
X182500000Y-139000000D01*
X182000000Y-138500000D02*
X181750000Y-138250000D01*
X181750000Y-138250000D02*
X181750000Y-133750000D01*
X181750000Y-133750000D02*
X182200000Y-133750000D01*
X182500000Y-139000000D02*
X182000000Y-138500000D01*
X182000000Y-133750000D02*
X182200000Y-133750000D01*
X162250000Y-132750000D02*
X162250000Y-133500000D01*
X162250000Y-133500000D02*
X162000000Y-133750000D01*
X162950000Y-134400000D02*
X162650000Y-134400000D01*
X162650000Y-134400000D02*
X162000000Y-133750000D01*
X160825000Y-139250000D02*
X163000000Y-139250000D01*
X164250000Y-139250000D02*
X165000000Y-138500000D01*
X163000000Y-139250000D02*
X164250000Y-139250000D01*
X160825000Y-139250000D02*
X160750000Y-139175000D01*
X160750000Y-139175000D02*
X160750000Y-139000000D01*
X174750000Y-135500000D02*
X174800000Y-135325000D01*
X162525000Y-121400000D02*
X162425000Y-121400000D01*
X161900000Y-121925000D02*
X161900000Y-122550000D01*
X162425000Y-121400000D02*
X161900000Y-121925000D01*
X161900000Y-122550000D02*
X161925000Y-122650000D01*
X164537500Y-123287500D02*
X164537500Y-121762500D01*
X161900000Y-120775000D02*
X161900000Y-120325000D01*
X162550000Y-121425000D02*
X162525000Y-121400000D01*
X162525000Y-121400000D02*
X161900000Y-120775000D01*
X164200000Y-121425000D02*
X162550000Y-121425000D01*
X164537500Y-121762500D02*
X164200000Y-121425000D01*
X161900000Y-120325000D02*
X161925000Y-120300000D01*
X164750000Y-123500000D02*
X164537500Y-123287500D01*
X164537500Y-123287500D02*
X164500000Y-123250000D01*
X166000000Y-124750000D02*
X166000000Y-124250000D01*
X166000000Y-125500000D02*
X166000000Y-124750000D01*
X166000000Y-125500000D02*
X166750000Y-126250000D01*
X165250000Y-124000000D02*
X164750000Y-123500000D01*
X165750000Y-124000000D02*
X165250000Y-124000000D01*
X166000000Y-124250000D02*
X165750000Y-124000000D01*
X176250000Y-140500000D02*
X176500000Y-140250000D01*
X176250000Y-140500000D02*
X176250000Y-141750000D01*
X176750000Y-142500000D02*
X177000000Y-142500000D01*
X176250000Y-141750000D02*
X177000000Y-142500000D01*
X176500000Y-140250000D02*
X176500000Y-138750000D01*
X176500000Y-138750000D02*
X176500000Y-138500000D01*
X174900000Y-136500000D02*
X174900000Y-136850000D01*
X174500000Y-138250000D02*
X173250000Y-139500000D01*
X174500000Y-137250000D02*
X174500000Y-138250000D01*
X174900000Y-136850000D02*
X174500000Y-137250000D01*
X174900000Y-135450000D02*
X174900000Y-136500000D01*
X172250000Y-140500000D02*
X172250000Y-142500000D01*
X173250000Y-139500000D02*
X172250000Y-140500000D01*
X182200000Y-133800000D02*
X182250000Y-133750000D01*
X182250000Y-133750000D02*
X182200000Y-133750000D01*
X168750000Y-129000000D02*
X170750000Y-129000000D01*
X168500000Y-129250000D02*
X168750000Y-129000000D01*
X170750000Y-129000000D02*
X170800000Y-128950000D01*
X166750000Y-129250000D02*
X166750000Y-126250000D01*
X160750000Y-139000000D02*
X160750000Y-138750000D01*
X160750000Y-138750000D02*
X162250000Y-137250000D01*
X162750000Y-134250000D02*
X162950000Y-134200000D01*
X170250000Y-140000000D02*
X170250000Y-141750000D01*
X170250000Y-140000000D02*
X169500000Y-139250000D01*
X169500000Y-138250000D02*
X169500000Y-139250000D01*
X171000000Y-142500000D02*
X172250000Y-142500000D01*
X172250000Y-142500000D02*
X173000000Y-142500000D01*
X170250000Y-141750000D02*
X171000000Y-142500000D01*
X173000000Y-142500000D02*
X174250000Y-142500000D01*
X174250000Y-142500000D02*
X176250000Y-142500000D01*
X176250000Y-142500000D02*
X176750000Y-142500000D01*
X176750000Y-142500000D02*
X180250000Y-142500000D01*
X181250000Y-141500000D02*
X180250000Y-142500000D01*
X181250000Y-141500000D02*
X181250000Y-141250000D01*
X167000000Y-134000000D02*
X167000000Y-134250000D01*
X167000000Y-134250000D02*
X167050000Y-134200000D01*
X165000000Y-138500000D02*
X165250000Y-138500000D01*
X165250000Y-138500000D02*
X165400000Y-138500000D01*
X169250000Y-138000000D02*
X169500000Y-138050000D01*
X160750000Y-139000000D02*
X160750000Y-139250000D01*
X169500000Y-138250000D02*
X169500000Y-138050000D01*
X164000000Y-129300000D02*
X165050000Y-129300000D01*
X165050000Y-129300000D02*
X165250000Y-129500000D01*
X164000000Y-128650000D02*
X164900000Y-128650000D01*
X165250000Y-129000000D02*
X165250000Y-129500000D01*
X164900000Y-128650000D02*
X165250000Y-129000000D01*
X173300000Y-124050000D02*
X173300000Y-122900000D01*
X164750000Y-132250000D02*
X164250000Y-132750000D01*
X164250000Y-132750000D02*
X163750000Y-132750000D01*
X165400000Y-137550000D02*
X165400000Y-137400000D01*
X165400000Y-137400000D02*
X164750000Y-136750000D01*
X163750000Y-132750000D02*
X164250000Y-132750000D01*
X164750000Y-132250000D02*
X164750000Y-134000000D01*
X164750000Y-134000000D02*
X165250000Y-134500000D01*
X170000000Y-130500000D02*
X170750000Y-130500000D01*
X168750000Y-132500000D02*
X169500000Y-131750000D01*
X169500000Y-131750000D02*
X169500000Y-131000000D01*
X169500000Y-131000000D02*
X170000000Y-130500000D01*
X164550000Y-126700000D02*
X165000000Y-126250000D01*
X163750000Y-126700000D02*
X164550000Y-126700000D01*
X170750000Y-130500000D02*
X170800000Y-130550000D01*
X165400000Y-137550000D02*
X164700000Y-137550000D01*
X164700000Y-137550000D02*
X163750000Y-138500000D01*
X169250000Y-135000000D02*
X169250000Y-136250000D01*
X169250000Y-136250000D02*
X169500000Y-136500000D01*
X169500000Y-136500000D02*
X169500000Y-136450000D01*
X163500000Y-122700000D02*
X163500000Y-123500000D01*
X163500000Y-123500000D02*
X165000000Y-125000000D01*
X163500000Y-122700000D02*
X163525000Y-122675000D01*
X163525000Y-122675000D02*
X163525000Y-122650000D01*
X165250000Y-125000000D02*
X165000000Y-125000000D01*
X165250000Y-125000000D02*
X165250000Y-124750000D01*
X163525000Y-120300000D02*
X164800000Y-120300000D01*
X165250000Y-120750000D02*
X165250000Y-121500000D01*
X164800000Y-120300000D02*
X165250000Y-120750000D01*
X163500000Y-120375000D02*
X163525000Y-120300000D01*
X164000000Y-127350000D02*
X165650000Y-127350000D01*
X165650000Y-127350000D02*
X166000000Y-127000000D01*
X165500000Y-128000000D02*
X165750000Y-128000000D01*
X165750000Y-128000000D02*
X166000000Y-128250000D01*
X166000000Y-128250000D02*
X166000000Y-128500000D01*
X164000000Y-128000000D02*
X165500000Y-128000000D01*
X174900000Y-124050000D02*
X174900000Y-123175000D01*
X171525000Y-120500000D02*
X171525000Y-119900000D01*
X172800000Y-121775000D02*
X171525000Y-120500000D01*
X173500000Y-121775000D02*
X172800000Y-121775000D01*
X174900000Y-123175000D02*
X173500000Y-121775000D01*
X171525000Y-119900000D02*
X171550000Y-119600000D01*
X175700000Y-124050000D02*
X175700000Y-122975000D01*
X175700000Y-122975000D02*
X173575000Y-120850000D01*
X173575000Y-120850000D02*
X173575000Y-119625000D01*
X173575000Y-119625000D02*
X173550000Y-119600000D01*
X176500000Y-124050000D02*
X176500000Y-122250000D01*
X176500000Y-122250000D02*
X175525000Y-121275000D01*
X175525000Y-121275000D02*
X175525000Y-119875000D01*
X175525000Y-119875000D02*
X175550000Y-119600000D01*
X177300000Y-124050000D02*
X177300000Y-120025000D01*
X177300000Y-120025000D02*
X177600000Y-119725000D01*
X177600000Y-119725000D02*
X177550000Y-119600000D01*
X178100000Y-124050000D02*
X178100000Y-122575000D01*
X178100000Y-122575000D02*
X179475000Y-121200000D01*
X179475000Y-121200000D02*
X179475000Y-119750000D01*
X179475000Y-119750000D02*
X179550000Y-119600000D01*
X178900000Y-124050000D02*
X178900000Y-122925000D01*
X178900000Y-122925000D02*
X181575000Y-120250000D01*
X181575000Y-120250000D02*
X181550000Y-119600000D01*
X181575000Y-119775000D02*
X181550000Y-119600000D01*
X167550000Y-119600000D02*
X167550000Y-120550000D01*
X167550000Y-120550000D02*
X168750000Y-121750000D01*
X167750000Y-119750000D02*
X167500000Y-119500000D01*
X167500000Y-119500000D02*
X167550000Y-119600000D01*
X169550000Y-119600000D02*
X169550000Y-121050000D01*
X169550000Y-121050000D02*
X170000000Y-121500000D01*
X169500000Y-119750000D02*
X169550000Y-119600000D01*
X184750000Y-140250000D02*
X184750000Y-141250000D01*
X184750000Y-141250000D02*
X184000000Y-142000000D01*
X184750000Y-136250000D02*
X184750000Y-140250000D01*
X184500000Y-135750000D02*
X184500000Y-136000000D01*
X184500000Y-136000000D02*
X184750000Y-136250000D01*
X184875000Y-131875000D02*
X184875000Y-133625000D01*
X182200000Y-130550000D02*
X183500000Y-130550000D01*
X183500000Y-130550000D02*
X183550000Y-130550000D01*
X183550000Y-130550000D02*
X184750000Y-131750000D01*
X184750000Y-131750000D02*
X184875000Y-131875000D01*
X184875000Y-133625000D02*
X184500000Y-134000000D01*
X184500000Y-134000000D02*
X184500000Y-135750000D01*
X182250000Y-130500000D02*
X182200000Y-130550000D01*
X184250000Y-140000000D02*
X184250000Y-140250000D01*
X184250000Y-140250000D02*
X184000000Y-140500000D01*
X184000000Y-136250000D02*
X184250000Y-136500000D01*
X184250000Y-136500000D02*
X184250000Y-137000000D01*
X184250000Y-137000000D02*
X184250000Y-139750000D01*
X183500000Y-141000000D02*
X184000000Y-140500000D01*
X182250000Y-140500000D02*
X182750000Y-141000000D01*
X178750000Y-140000000D02*
X177500000Y-141250000D01*
X178750000Y-140000000D02*
X181500000Y-140000000D01*
X181750000Y-140000000D02*
X182250000Y-140500000D01*
X181500000Y-140000000D02*
X181750000Y-140000000D01*
X182750000Y-141000000D02*
X183500000Y-141000000D01*
X184250000Y-139750000D02*
X184250000Y-140000000D01*
X184000000Y-133750000D02*
X184000000Y-136250000D01*
X184375000Y-133375000D02*
X184000000Y-133750000D01*
X182200000Y-131350000D02*
X183250000Y-131350000D01*
X183350000Y-131350000D02*
X184375000Y-132375000D01*
X183250000Y-131350000D02*
X183350000Y-131350000D01*
X184375000Y-132375000D02*
X184375000Y-133250000D01*
X184375000Y-133250000D02*
X184375000Y-133375000D01*
X182200000Y-131350000D02*
X182200000Y-131450000D01*
X182200000Y-131450000D02*
X182250000Y-131500000D01*
X182250000Y-131500000D02*
X182200000Y-131350000D01*
X182750000Y-131250000D02*
X182500000Y-131500000D01*
X182500000Y-131500000D02*
X182200000Y-131350000D01*
X177250000Y-141250000D02*
X177500000Y-141250000D01*
X177250000Y-141250000D02*
X177500000Y-141500000D01*
X182500000Y-131500000D02*
X182200000Y-131350000D01*
X182225000Y-131225000D02*
X182500000Y-131500000D01*
X181250000Y-137250000D02*
X181250000Y-139000000D01*
X181250000Y-139000000D02*
X181500000Y-139250000D01*
X180500000Y-136500000D02*
X181000000Y-137000000D01*
X180500000Y-136500000D02*
X180500000Y-135450000D01*
X181250000Y-137250000D02*
X181000000Y-137000000D01*
X175250000Y-141250000D02*
X175250000Y-141000000D01*
X180500000Y-136000000D02*
X180500000Y-135450000D01*
X180750000Y-137500000D02*
X180750000Y-139000000D01*
X180750000Y-139000000D02*
X180500000Y-139250000D01*
X179600000Y-135325000D02*
X179675000Y-135325000D01*
X179675000Y-135325000D02*
X179750000Y-135250000D01*
X179750000Y-135250000D02*
X179600000Y-135325000D01*
X180500000Y-137250000D02*
X180750000Y-137500000D01*
X179700000Y-136450000D02*
X180500000Y-137250000D01*
X179700000Y-135450000D02*
X179700000Y-136450000D01*
X173250000Y-141000000D02*
X173250000Y-141250000D01*
X179750000Y-135500000D02*
X179700000Y-135450000D01*
X179400000Y-136900000D02*
X178900000Y-136400000D01*
X180000000Y-138000000D02*
X180000000Y-137500000D01*
X180000000Y-137500000D02*
X179400000Y-136900000D01*
X178900000Y-135450000D02*
X178900000Y-136400000D01*
X178800000Y-135800000D02*
X178750000Y-135750000D01*
X178750000Y-135750000D02*
X178900000Y-135450000D01*
X179000000Y-138250000D02*
X179000000Y-137500000D01*
X179000000Y-137500000D02*
X178100000Y-136600000D01*
X178100000Y-135450000D02*
X178100000Y-136600000D01*
X178000000Y-135250000D02*
X178100000Y-135450000D01*
X178000000Y-135500000D02*
X178100000Y-135450000D01*
X163750000Y-140000000D02*
X162500000Y-140000000D01*
X163750000Y-140000000D02*
X164750000Y-140000000D01*
X164750000Y-140000000D02*
X165250000Y-139500000D01*
X165250000Y-139500000D02*
X165400000Y-139450000D01*
X162950000Y-136000000D02*
X165750000Y-136000000D01*
X165750000Y-136000000D02*
X167000000Y-136000000D01*
X167000000Y-136000000D02*
X167050000Y-136000000D01*
X171250000Y-137250000D02*
X172500000Y-137250000D01*
X172500000Y-137250000D02*
X173250000Y-136500000D01*
X173125000Y-136625000D02*
X173250000Y-136500000D01*
X173250000Y-136500000D02*
X173125000Y-136625000D01*
X162950000Y-135800000D02*
X161550000Y-135800000D01*
X161550000Y-135800000D02*
X160750000Y-135000000D01*
X167050000Y-135800000D02*
X166950000Y-135800000D01*
X166950000Y-135800000D02*
X167000000Y-135750000D01*
X167000000Y-135750000D02*
X167050000Y-135800000D01*
X173250000Y-136500000D02*
X173250000Y-136000000D01*
X173250000Y-136000000D02*
X173300000Y-135450000D01*
X173250000Y-135500000D02*
X173200000Y-135325000D01*
X170800000Y-127350000D02*
X167850000Y-127350000D01*
X167850000Y-127350000D02*
X167500000Y-127000000D01*
X170800000Y-128150000D02*
X167850000Y-128150000D01*
X167850000Y-128150000D02*
X167500000Y-128500000D01*
X167500000Y-128250000D02*
X167500000Y-128500000D01*
X172400000Y-135325000D02*
X172400000Y-136100000D01*
X170750000Y-135000000D02*
X171750000Y-135000000D01*
X171750000Y-135000000D02*
X172400000Y-135650000D01*
X172400000Y-135650000D02*
X172500000Y-135450000D01*
X167500000Y-125250000D02*
X167250000Y-125000000D01*
X167250000Y-125000000D02*
X166750000Y-125000000D01*
X167500000Y-125500000D02*
X167500000Y-125250000D01*
X166750000Y-121500000D02*
X168000000Y-122750000D01*
X182750000Y-127500000D02*
X182500000Y-127250000D01*
X183350000Y-127350000D02*
X183750000Y-127750000D01*
X183350000Y-127350000D02*
X182200000Y-127350000D01*
X182200000Y-126550000D02*
X183700000Y-126550000D01*
X183700000Y-126550000D02*
X183750000Y-126500000D01*
X179750000Y-132500000D02*
X181000000Y-131250000D01*
X181000000Y-131250000D02*
X181000000Y-130000000D01*
X182250000Y-129750000D02*
X181250000Y-129750000D01*
X181000000Y-130000000D02*
X181250000Y-129750000D01*
X179750000Y-133250000D02*
X179750000Y-132500000D01*
X182250000Y-129750000D02*
X182200000Y-129750000D01*
X179000000Y-132500000D02*
X180500000Y-131000000D01*
X180500000Y-131000000D02*
X180500000Y-129500000D01*
X179000000Y-132500000D02*
X179000000Y-132250000D01*
X182000000Y-129000000D02*
X181000000Y-129000000D01*
X180500000Y-129500000D02*
X181000000Y-129000000D01*
X182000000Y-129000000D02*
X182200000Y-128950000D01*
X179000000Y-131250000D02*
X179500000Y-131250000D01*
X181000000Y-128250000D02*
X181250000Y-128250000D01*
X180000000Y-129250000D02*
X181000000Y-128250000D01*
X180000000Y-130750000D02*
X180000000Y-129250000D01*
X179500000Y-131250000D02*
X180000000Y-130750000D01*
X181250000Y-128250000D02*
X182250000Y-128250000D01*
X182250000Y-128250000D02*
X182200000Y-128150000D01*
X181350000Y-132150000D02*
X180750000Y-132750000D01*
X182200000Y-132150000D02*
X181350000Y-132150000D01*
X170800000Y-132950000D02*
X173300000Y-132950000D01*
X173300000Y-132950000D02*
X176500000Y-129500000D01*
X170800000Y-133750000D02*
X174250000Y-133750000D01*
X174250000Y-133750000D02*
X178500000Y-129500000D01*
X170750000Y-133750000D02*
X170800000Y-133750000D01*
X179000000Y-127750000D02*
X176250000Y-127750000D01*
X176250000Y-127750000D02*
X171850000Y-132150000D01*
X170850000Y-132150000D02*
X171850000Y-132150000D01*
X170850000Y-132150000D02*
X170750000Y-132250000D01*
X170750000Y-132250000D02*
X170800000Y-132150000D01*
X179750000Y-126250000D02*
X173000000Y-126250000D01*
X173000000Y-126250000D02*
X172750000Y-126000000D01*
X172500000Y-125750000D02*
X172150000Y-125750000D01*
X172750000Y-126000000D02*
X172500000Y-125750000D01*
X170800000Y-125750000D02*
X172150000Y-125750000D01*
X171000000Y-125750000D02*
X170800000Y-125750000D01*
X174100000Y-124050000D02*
X174075000Y-124075000D01*
X176500000Y-135450000D02*
X176500000Y-136500000D01*
X176500000Y-136500000D02*
X177750000Y-137750000D01*
X177750000Y-137750000D02*
X177750000Y-138500000D01*
X177750000Y-138500000D02*
X177700000Y-138500000D01*
X176450000Y-135800000D02*
X176500000Y-135750000D01*
X176500000Y-135750000D02*
X176500000Y-135450000D01*
X176500000Y-135450000D02*
X176500000Y-135750000D01*
X176500000Y-135500000D02*
X176500000Y-135450000D01*
X175300000Y-138500000D02*
X175300000Y-137450000D01*
X175300000Y-137450000D02*
X175750000Y-137000000D01*
X175750000Y-137000000D02*
X175750000Y-136000000D01*
X175750000Y-136000000D02*
X175700000Y-135450000D01*
X175750000Y-136000000D02*
X175700000Y-135450000D01*
X175750000Y-136000000D02*
X175700000Y-135450000D01*
X175750000Y-136000000D02*
X175700000Y-135450000D01*
D31*
G36*
X160792153Y-113277380D02*
X160534441Y-113604836D01*
X162250000Y-115320395D01*
X163965559Y-113604836D01*
X163707847Y-113277380D01*
X163657434Y-113257000D01*
X185493000Y-113257000D01*
X185493000Y-146993000D01*
X163658645Y-146993000D01*
X163707847Y-146972620D01*
X163965559Y-146645164D01*
X162250000Y-144929605D01*
X160534441Y-146645164D01*
X160792153Y-146972620D01*
X160842566Y-146993000D01*
X160007000Y-146993000D01*
X160007000Y-146158645D01*
X160027380Y-146207847D01*
X160354836Y-146465559D01*
X162070395Y-144750000D01*
X162429605Y-144750000D01*
X164145164Y-146465559D01*
X164472620Y-146207847D01*
X164861327Y-145246315D01*
X164852483Y-144209224D01*
X164472620Y-143292153D01*
X164145164Y-143034441D01*
X162429605Y-144750000D01*
X162070395Y-144750000D01*
X160354836Y-143034441D01*
X160027380Y-143292153D01*
X160007000Y-143342566D01*
X160007000Y-142854836D01*
X160534441Y-142854836D01*
X162250000Y-144570395D01*
X163965559Y-142854836D01*
X163707847Y-142527380D01*
X163587553Y-142478750D01*
X164718000Y-142478750D01*
X164718000Y-142730957D01*
X164779962Y-142880547D01*
X164894453Y-142995038D01*
X165044042Y-143057000D01*
X165271250Y-143057000D01*
X165373000Y-142955250D01*
X165373000Y-142377000D01*
X165627000Y-142377000D01*
X165627000Y-142955250D01*
X165728750Y-143057000D01*
X165955958Y-143057000D01*
X166105547Y-142995038D01*
X166220038Y-142880547D01*
X166282000Y-142730957D01*
X166282000Y-142478750D01*
X166180250Y-142377000D01*
X165627000Y-142377000D01*
X165373000Y-142377000D01*
X164819750Y-142377000D01*
X164718000Y-142478750D01*
X163587553Y-142478750D01*
X162746315Y-142138673D01*
X161709224Y-142147517D01*
X160792153Y-142527380D01*
X160534441Y-142854836D01*
X160007000Y-142854836D01*
X160007000Y-141794014D01*
X160314739Y-141999638D01*
X160728802Y-142082000D01*
X160771198Y-142082000D01*
X161185261Y-141999638D01*
X161510980Y-141782000D01*
X164250000Y-141782000D01*
X164453588Y-141741504D01*
X164626181Y-141626181D01*
X164822502Y-141429860D01*
X164831570Y-141443430D01*
X164912482Y-141497494D01*
X164894453Y-141504962D01*
X164779962Y-141619453D01*
X164718000Y-141769043D01*
X164718000Y-142021250D01*
X164819750Y-142123000D01*
X165373000Y-142123000D01*
X165373000Y-142103000D01*
X165627000Y-142103000D01*
X165627000Y-142123000D01*
X166180250Y-142123000D01*
X166205869Y-142097381D01*
X166229962Y-142155547D01*
X166344453Y-142270038D01*
X166494042Y-142332000D01*
X167021250Y-142332000D01*
X167123000Y-142230250D01*
X167123000Y-141377000D01*
X167103000Y-141377000D01*
X167103000Y-141123000D01*
X167123000Y-141123000D01*
X167123000Y-141103000D01*
X167377000Y-141103000D01*
X167377000Y-141123000D01*
X167397000Y-141123000D01*
X167397000Y-141377000D01*
X167377000Y-141377000D01*
X167377000Y-142230250D01*
X167478750Y-142332000D01*
X168005958Y-142332000D01*
X168155547Y-142270038D01*
X168270038Y-142155547D01*
X168332000Y-142005957D01*
X168332000Y-141807441D01*
X168484910Y-142036288D01*
X168835937Y-142270836D01*
X169250000Y-142353198D01*
X169664063Y-142270836D01*
X170015090Y-142036288D01*
X170249638Y-141685261D01*
X170250000Y-141683441D01*
X170250362Y-141685261D01*
X170484910Y-142036288D01*
X170835937Y-142270836D01*
X171250000Y-142353198D01*
X171664063Y-142270836D01*
X172015090Y-142036288D01*
X172249638Y-141685261D01*
X172250000Y-141683441D01*
X172250362Y-141685261D01*
X172484910Y-142036288D01*
X172835937Y-142270836D01*
X173250000Y-142353198D01*
X173664063Y-142270836D01*
X174015090Y-142036288D01*
X174249638Y-141685261D01*
X174250000Y-141683441D01*
X174250362Y-141685261D01*
X174484910Y-142036288D01*
X174835937Y-142270836D01*
X175250000Y-142353198D01*
X175664063Y-142270836D01*
X176015090Y-142036288D01*
X176249638Y-141685261D01*
X176250000Y-141683441D01*
X176250362Y-141685261D01*
X176484910Y-142036288D01*
X176835937Y-142270836D01*
X177250000Y-142353198D01*
X177664063Y-142270836D01*
X178015090Y-142036288D01*
X178249638Y-141685261D01*
X178250000Y-141683441D01*
X178250362Y-141685261D01*
X178484910Y-142036288D01*
X178835937Y-142270836D01*
X179250000Y-142353198D01*
X179664063Y-142270836D01*
X180015090Y-142036288D01*
X180249638Y-141685261D01*
X180258375Y-141641335D01*
X180400166Y-141919728D01*
X180721150Y-142193965D01*
X180956471Y-142291425D01*
X181123000Y-142221988D01*
X181123000Y-141377000D01*
X181103000Y-141377000D01*
X181103000Y-141123000D01*
X181123000Y-141123000D01*
X181123000Y-141103000D01*
X181377000Y-141103000D01*
X181377000Y-141123000D01*
X181397000Y-141123000D01*
X181397000Y-141377000D01*
X181377000Y-141377000D01*
X181377000Y-142221988D01*
X181543529Y-142291425D01*
X181778850Y-142193965D01*
X182099834Y-141919728D01*
X182291438Y-141543531D01*
X182222785Y-141377002D01*
X182332000Y-141377002D01*
X182332000Y-141334362D01*
X182373819Y-141376181D01*
X182546412Y-141491504D01*
X182750000Y-141532000D01*
X183326550Y-141532000D01*
X183316258Y-141542274D01*
X183193140Y-141838774D01*
X183192860Y-142159818D01*
X183315460Y-142456532D01*
X183542274Y-142683742D01*
X183838774Y-142806860D01*
X184159818Y-142807140D01*
X184456532Y-142684540D01*
X184683742Y-142457726D01*
X184806860Y-142161226D01*
X184807048Y-141945314D01*
X185126181Y-141626181D01*
X185127759Y-141623819D01*
X185241504Y-141453588D01*
X185282000Y-141250000D01*
X185282000Y-136250000D01*
X185241504Y-136046412D01*
X185126181Y-135873819D01*
X185032000Y-135779638D01*
X185032000Y-134220362D01*
X185251181Y-134001181D01*
X185266169Y-133978750D01*
X185366504Y-133828588D01*
X185407000Y-133625000D01*
X185407000Y-131875000D01*
X185366504Y-131671412D01*
X185251181Y-131498819D01*
X183926181Y-130173819D01*
X183912942Y-130164973D01*
X183753588Y-130058496D01*
X183550000Y-130018000D01*
X183364973Y-130018000D01*
X183364973Y-129475000D01*
X183340109Y-129350000D01*
X183364973Y-129225000D01*
X183364973Y-128675000D01*
X183340109Y-128550000D01*
X183357820Y-128460959D01*
X183588774Y-128556860D01*
X183909818Y-128557140D01*
X184206532Y-128434540D01*
X184433742Y-128207726D01*
X184556860Y-127911226D01*
X184557140Y-127590182D01*
X184434540Y-127293468D01*
X184266271Y-127124905D01*
X184433742Y-126957726D01*
X184556860Y-126661226D01*
X184557140Y-126340182D01*
X184434540Y-126043468D01*
X184266271Y-125874905D01*
X184433742Y-125707726D01*
X184556860Y-125411226D01*
X184557140Y-125090182D01*
X184434540Y-124793468D01*
X184207726Y-124566258D01*
X183911226Y-124443140D01*
X183695314Y-124442952D01*
X182926181Y-123673819D01*
X182915233Y-123666504D01*
X182753588Y-123558496D01*
X182550000Y-123518000D01*
X181189973Y-123518000D01*
X181189973Y-123300000D01*
X181158385Y-123141197D01*
X181068430Y-123006570D01*
X180933803Y-122916615D01*
X180775000Y-122885027D01*
X180225000Y-122885027D01*
X180097795Y-122910330D01*
X180055958Y-122893000D01*
X179928750Y-122893000D01*
X179827000Y-122994750D01*
X179827000Y-123214671D01*
X179810027Y-123300000D01*
X179810027Y-124800000D01*
X179827000Y-124885329D01*
X179827000Y-125105250D01*
X179928750Y-125207000D01*
X180055958Y-125207000D01*
X180097795Y-125189670D01*
X180225000Y-125214973D01*
X180775000Y-125214973D01*
X180933803Y-125183385D01*
X181068430Y-125093430D01*
X181158385Y-124958803D01*
X181189973Y-124800000D01*
X181189973Y-124582000D01*
X182329638Y-124582000D01*
X182807665Y-125060027D01*
X181450000Y-125060027D01*
X181291197Y-125091615D01*
X181156570Y-125181570D01*
X181066615Y-125316197D01*
X181035027Y-125475000D01*
X181035027Y-126025000D01*
X181059891Y-126150000D01*
X181035027Y-126275000D01*
X181035027Y-126825000D01*
X181059891Y-126950000D01*
X181035027Y-127075000D01*
X181035027Y-127625000D01*
X181053526Y-127718000D01*
X181000005Y-127718000D01*
X181000000Y-127717999D01*
X180796413Y-127758495D01*
X180758537Y-127783803D01*
X180623819Y-127873819D01*
X180623817Y-127873822D01*
X179623819Y-128873819D01*
X179508496Y-129046412D01*
X179468000Y-129250000D01*
X179468000Y-130529638D01*
X179439110Y-130558528D01*
X179161226Y-130443140D01*
X178840182Y-130442860D01*
X178543468Y-130565460D01*
X178316258Y-130792274D01*
X178193140Y-131088774D01*
X178192860Y-131409818D01*
X178315460Y-131706532D01*
X178483729Y-131875095D01*
X178316258Y-132042274D01*
X178193140Y-132338774D01*
X178192860Y-132659818D01*
X178315460Y-132956532D01*
X178542274Y-133183742D01*
X178838774Y-133306860D01*
X178942950Y-133306951D01*
X178942860Y-133409818D01*
X179065460Y-133706532D01*
X179292274Y-133933742D01*
X179588774Y-134056860D01*
X179909818Y-134057140D01*
X180099535Y-133978750D01*
X181043000Y-133978750D01*
X181043000Y-134105958D01*
X181104962Y-134255547D01*
X181219453Y-134370038D01*
X181369043Y-134432000D01*
X181971250Y-134432000D01*
X182073000Y-134330250D01*
X182073000Y-133877000D01*
X181144750Y-133877000D01*
X181043000Y-133978750D01*
X180099535Y-133978750D01*
X180206532Y-133934540D01*
X180433742Y-133707726D01*
X180509974Y-133524139D01*
X180588774Y-133556860D01*
X180909818Y-133557140D01*
X181043000Y-133502110D01*
X181043000Y-133521250D01*
X181144750Y-133623000D01*
X181364671Y-133623000D01*
X181450000Y-133639973D01*
X182347000Y-133639973D01*
X182347000Y-133877000D01*
X182327000Y-133877000D01*
X182327000Y-134330250D01*
X182428750Y-134432000D01*
X182968000Y-134432000D01*
X182968000Y-135279638D01*
X182812611Y-135435027D01*
X182375000Y-135435027D01*
X182216197Y-135466615D01*
X182081570Y-135556570D01*
X181991615Y-135691197D01*
X181960027Y-135850000D01*
X181960027Y-136650000D01*
X181991615Y-136808803D01*
X182081570Y-136943430D01*
X182162482Y-136997494D01*
X182144453Y-137004962D01*
X182029962Y-137119453D01*
X181968000Y-137269043D01*
X181968000Y-137521250D01*
X182069750Y-137623000D01*
X182623000Y-137623000D01*
X182623000Y-137603000D01*
X182877000Y-137603000D01*
X182877000Y-137623000D01*
X182897000Y-137623000D01*
X182897000Y-137877000D01*
X182877000Y-137877000D01*
X182877000Y-138455250D01*
X182978750Y-138557000D01*
X183205958Y-138557000D01*
X183218000Y-138552012D01*
X183218000Y-139192971D01*
X183090182Y-139192860D01*
X182793468Y-139315460D01*
X182566258Y-139542274D01*
X182443140Y-139838774D01*
X182443051Y-139940689D01*
X182191472Y-139689110D01*
X182306860Y-139411226D01*
X182307140Y-139090182D01*
X182184540Y-138793468D01*
X181957726Y-138566258D01*
X181782000Y-138493290D01*
X181782000Y-137978750D01*
X181968000Y-137978750D01*
X181968000Y-138230957D01*
X182029962Y-138380547D01*
X182144453Y-138495038D01*
X182294042Y-138557000D01*
X182521250Y-138557000D01*
X182623000Y-138455250D01*
X182623000Y-137877000D01*
X182069750Y-137877000D01*
X181968000Y-137978750D01*
X181782000Y-137978750D01*
X181782000Y-137250000D01*
X181741504Y-137046412D01*
X181626181Y-136873819D01*
X181139471Y-136387109D01*
X181158385Y-136358803D01*
X181189973Y-136200000D01*
X181189973Y-134700000D01*
X181158385Y-134541197D01*
X181068430Y-134406570D01*
X180933803Y-134316615D01*
X180775000Y-134285027D01*
X180225000Y-134285027D01*
X180100000Y-134309891D01*
X179975000Y-134285027D01*
X179425000Y-134285027D01*
X179300000Y-134309891D01*
X179175000Y-134285027D01*
X178625000Y-134285027D01*
X178500000Y-134309891D01*
X178375000Y-134285027D01*
X177825000Y-134285027D01*
X177700000Y-134309891D01*
X177575000Y-134285027D01*
X177025000Y-134285027D01*
X176900000Y-134309891D01*
X176775000Y-134285027D01*
X176225000Y-134285027D01*
X176100000Y-134309891D01*
X175975000Y-134285027D01*
X175425000Y-134285027D01*
X175297795Y-134310330D01*
X175255958Y-134293000D01*
X175128750Y-134293000D01*
X175027000Y-134394750D01*
X175027000Y-134614671D01*
X175010027Y-134700000D01*
X175010027Y-136200000D01*
X175027000Y-136285329D01*
X175027000Y-136505250D01*
X175128750Y-136607000D01*
X175218000Y-136607000D01*
X175218000Y-136779638D01*
X174923819Y-137073819D01*
X174918499Y-137081782D01*
X174806570Y-137156570D01*
X174716615Y-137291197D01*
X174685027Y-137450000D01*
X174685027Y-139550000D01*
X174716615Y-139708803D01*
X174806570Y-139843430D01*
X174941197Y-139933385D01*
X175100000Y-139964973D01*
X175500000Y-139964973D01*
X175658803Y-139933385D01*
X175793430Y-139843430D01*
X175883385Y-139708803D01*
X175896965Y-139640531D01*
X175954962Y-139780547D01*
X176069453Y-139895038D01*
X176219043Y-139957000D01*
X176298250Y-139957000D01*
X176400000Y-139855250D01*
X176400000Y-138627000D01*
X176353000Y-138627000D01*
X176353000Y-138373000D01*
X176400000Y-138373000D01*
X176400000Y-138353000D01*
X176600000Y-138353000D01*
X176600000Y-138373000D01*
X176647000Y-138373000D01*
X176647000Y-138627000D01*
X176600000Y-138627000D01*
X176600000Y-139855250D01*
X176701750Y-139957000D01*
X176780957Y-139957000D01*
X176930547Y-139895038D01*
X177045038Y-139780547D01*
X177103035Y-139640531D01*
X177116615Y-139708803D01*
X177206570Y-139843430D01*
X177341197Y-139933385D01*
X177500000Y-139964973D01*
X177900000Y-139964973D01*
X178058803Y-139933385D01*
X178075228Y-139922410D01*
X177726653Y-140270985D01*
X177664063Y-140229164D01*
X177250000Y-140146802D01*
X176835937Y-140229164D01*
X176484910Y-140463712D01*
X176250362Y-140814739D01*
X176250000Y-140816559D01*
X176249638Y-140814739D01*
X176015090Y-140463712D01*
X175664063Y-140229164D01*
X175250000Y-140146802D01*
X174835937Y-140229164D01*
X174484910Y-140463712D01*
X174250362Y-140814739D01*
X174250000Y-140816559D01*
X174249638Y-140814739D01*
X174015090Y-140463712D01*
X173664063Y-140229164D01*
X173250000Y-140146802D01*
X172835937Y-140229164D01*
X172484910Y-140463712D01*
X172250362Y-140814739D01*
X172250000Y-140816559D01*
X172249638Y-140814739D01*
X172015090Y-140463712D01*
X171664063Y-140229164D01*
X171250000Y-140146802D01*
X170835937Y-140229164D01*
X170484910Y-140463712D01*
X170250362Y-140814739D01*
X170250000Y-140816559D01*
X170249638Y-140814739D01*
X170015090Y-140463712D01*
X169664063Y-140229164D01*
X169250000Y-140146802D01*
X168835937Y-140229164D01*
X168484910Y-140463712D01*
X168332000Y-140692559D01*
X168332000Y-140494043D01*
X168270038Y-140344453D01*
X168155547Y-140229962D01*
X168059005Y-140189973D01*
X168130000Y-140189973D01*
X168288803Y-140158385D01*
X168423430Y-140068430D01*
X168513385Y-139933803D01*
X168544973Y-139775000D01*
X168544973Y-139125000D01*
X168513385Y-138966197D01*
X168423430Y-138831570D01*
X168288803Y-138741615D01*
X168130000Y-138710027D01*
X167292335Y-138710027D01*
X167712389Y-138289973D01*
X168130000Y-138289973D01*
X168186421Y-138278750D01*
X168693000Y-138278750D01*
X168693000Y-138530957D01*
X168754962Y-138680547D01*
X168869453Y-138795038D01*
X169019042Y-138857000D01*
X169271250Y-138857000D01*
X169373000Y-138755250D01*
X169373000Y-138177000D01*
X169627000Y-138177000D01*
X169627000Y-138755250D01*
X169728750Y-138857000D01*
X169980958Y-138857000D01*
X170130547Y-138795038D01*
X170245038Y-138680547D01*
X170307000Y-138530957D01*
X170307000Y-138278750D01*
X170205250Y-138177000D01*
X169627000Y-138177000D01*
X169373000Y-138177000D01*
X168794750Y-138177000D01*
X168693000Y-138278750D01*
X168186421Y-138278750D01*
X168288803Y-138258385D01*
X168423430Y-138168430D01*
X168513385Y-138033803D01*
X168544973Y-137875000D01*
X168544973Y-137225000D01*
X168532000Y-137159781D01*
X168532000Y-133283285D01*
X168588774Y-133306860D01*
X168909818Y-133307140D01*
X169206532Y-133184540D01*
X169433742Y-132957726D01*
X169556860Y-132661226D01*
X169557048Y-132445314D01*
X169635027Y-132367335D01*
X169635027Y-132425000D01*
X169659891Y-132550000D01*
X169635027Y-132675000D01*
X169635027Y-133225000D01*
X169659891Y-133350000D01*
X169635027Y-133475000D01*
X169635027Y-134025000D01*
X169663869Y-134170000D01*
X169658803Y-134166615D01*
X169500000Y-134135027D01*
X169000000Y-134135027D01*
X168841197Y-134166615D01*
X168706570Y-134256570D01*
X168616615Y-134391197D01*
X168585027Y-134550000D01*
X168585027Y-135450000D01*
X168616615Y-135608803D01*
X168706570Y-135743430D01*
X168718000Y-135751067D01*
X168718000Y-135889124D01*
X168716615Y-135891197D01*
X168685027Y-136050000D01*
X168685027Y-136850000D01*
X168716615Y-137008803D01*
X168806570Y-137143430D01*
X168941197Y-137233385D01*
X169009469Y-137246965D01*
X168869453Y-137304962D01*
X168754962Y-137419453D01*
X168693000Y-137569043D01*
X168693000Y-137821250D01*
X168794750Y-137923000D01*
X169373000Y-137923000D01*
X169373000Y-137903000D01*
X169627000Y-137903000D01*
X169627000Y-137923000D01*
X170205250Y-137923000D01*
X170307000Y-137821250D01*
X170307000Y-137569043D01*
X170245038Y-137419453D01*
X170130547Y-137304962D01*
X169990531Y-137246965D01*
X170058803Y-137233385D01*
X170193430Y-137143430D01*
X170283385Y-137008803D01*
X170314973Y-136850000D01*
X170314973Y-136050000D01*
X170283385Y-135891197D01*
X170193430Y-135756570D01*
X170058803Y-135666615D01*
X169900000Y-135635027D01*
X169865863Y-135635027D01*
X169883385Y-135608803D01*
X169914973Y-135450000D01*
X169914973Y-134550000D01*
X169886131Y-134405000D01*
X169891197Y-134408385D01*
X170050000Y-134439973D01*
X170106913Y-134439973D01*
X170085027Y-134550000D01*
X170085027Y-135450000D01*
X170116615Y-135608803D01*
X170206570Y-135743430D01*
X170341197Y-135833385D01*
X170500000Y-135864973D01*
X171000000Y-135864973D01*
X171158803Y-135833385D01*
X171293430Y-135743430D01*
X171383385Y-135608803D01*
X171398662Y-135532000D01*
X171529638Y-135532000D01*
X171810027Y-135812389D01*
X171810027Y-136200000D01*
X171841615Y-136358803D01*
X171931570Y-136493430D01*
X172066197Y-136583385D01*
X172225000Y-136614973D01*
X172314399Y-136614973D01*
X172371339Y-136626299D01*
X172279638Y-136718000D01*
X171859204Y-136718000D01*
X171707726Y-136566258D01*
X171411226Y-136443140D01*
X171090182Y-136442860D01*
X170793468Y-136565460D01*
X170566258Y-136792274D01*
X170443140Y-137088774D01*
X170442860Y-137409818D01*
X170565460Y-137706532D01*
X170792274Y-137933742D01*
X171088774Y-138056860D01*
X171409818Y-138057140D01*
X171706532Y-137934540D01*
X171859338Y-137782000D01*
X172500000Y-137782000D01*
X172703588Y-137741504D01*
X172721631Y-137729448D01*
X172815460Y-137956532D01*
X173042274Y-138183742D01*
X173338774Y-138306860D01*
X173659818Y-138307140D01*
X173956532Y-138184540D01*
X174183742Y-137957726D01*
X174306860Y-137661226D01*
X174307048Y-137445314D01*
X174476181Y-137276181D01*
X174487998Y-137258496D01*
X174591504Y-137103588D01*
X174632000Y-136900000D01*
X174632000Y-136607000D01*
X174671250Y-136607000D01*
X174773000Y-136505250D01*
X174773000Y-136285329D01*
X174789973Y-136200000D01*
X174789973Y-134700000D01*
X174773000Y-134614671D01*
X174773000Y-134394750D01*
X174671250Y-134293000D01*
X174544042Y-134293000D01*
X174502205Y-134310330D01*
X174375000Y-134285027D01*
X173825000Y-134285027D01*
X173700000Y-134309891D01*
X173575000Y-134285027D01*
X173025000Y-134285027D01*
X172900000Y-134309891D01*
X172775000Y-134285027D01*
X172225000Y-134285027D01*
X172066197Y-134316615D01*
X171931570Y-134406570D01*
X171874038Y-134492673D01*
X171750000Y-134468000D01*
X171398662Y-134468000D01*
X171393087Y-134439973D01*
X171550000Y-134439973D01*
X171708803Y-134408385D01*
X171843430Y-134318430D01*
X171867772Y-134282000D01*
X174250000Y-134282000D01*
X174453588Y-134241504D01*
X174626181Y-134126181D01*
X178445409Y-130306953D01*
X178659818Y-130307140D01*
X178956532Y-130184540D01*
X179183742Y-129957726D01*
X179306860Y-129661226D01*
X179307140Y-129340182D01*
X179184540Y-129043468D01*
X178957726Y-128816258D01*
X178661226Y-128693140D01*
X178340182Y-128692860D01*
X178043468Y-128815460D01*
X177816258Y-129042274D01*
X177693140Y-129338774D01*
X177692952Y-129554686D01*
X174029638Y-133218000D01*
X173777034Y-133218000D01*
X176477111Y-130306981D01*
X176659818Y-130307140D01*
X176956532Y-130184540D01*
X177183742Y-129957726D01*
X177306860Y-129661226D01*
X177307140Y-129340182D01*
X177184540Y-129043468D01*
X176957726Y-128816258D01*
X176661226Y-128693140D01*
X176340182Y-128692860D01*
X176043468Y-128815460D01*
X175816258Y-129042274D01*
X175693140Y-129338774D01*
X175692923Y-129587828D01*
X173067835Y-132418000D01*
X172334362Y-132418000D01*
X176470362Y-128282000D01*
X178390796Y-128282000D01*
X178542274Y-128433742D01*
X178838774Y-128556860D01*
X179159818Y-128557140D01*
X179456532Y-128434540D01*
X179683742Y-128207726D01*
X179806860Y-127911226D01*
X179807140Y-127590182D01*
X179684540Y-127293468D01*
X179457726Y-127066258D01*
X179161226Y-126943140D01*
X178840182Y-126942860D01*
X178543468Y-127065460D01*
X178390662Y-127218000D01*
X176250005Y-127218000D01*
X176250000Y-127217999D01*
X176089124Y-127250000D01*
X176046412Y-127258496D01*
X175909467Y-127350000D01*
X175873819Y-127373819D01*
X171964973Y-131282665D01*
X171964973Y-131075000D01*
X171940109Y-130950000D01*
X171964973Y-130825000D01*
X171964973Y-130275000D01*
X171940109Y-130150000D01*
X171964973Y-130025000D01*
X171964973Y-129475000D01*
X171939670Y-129347795D01*
X171957000Y-129305958D01*
X171957000Y-129178750D01*
X171855250Y-129077000D01*
X171635329Y-129077000D01*
X171550000Y-129060027D01*
X170050000Y-129060027D01*
X169964671Y-129077000D01*
X169744750Y-129077000D01*
X169643000Y-129178750D01*
X169643000Y-129218000D01*
X169500000Y-129218000D01*
X169296412Y-129258496D01*
X169137058Y-129364973D01*
X169123819Y-129373819D01*
X168724901Y-129772737D01*
X168703587Y-129758496D01*
X168500000Y-129718000D01*
X168296413Y-129758496D01*
X168123819Y-129873819D01*
X168008496Y-130046413D01*
X167968000Y-130250000D01*
X168008496Y-130453587D01*
X168030089Y-130485903D01*
X167900000Y-130460027D01*
X167100000Y-130460027D01*
X166941197Y-130491615D01*
X166806570Y-130581570D01*
X166752506Y-130662482D01*
X166745038Y-130644453D01*
X166630547Y-130529962D01*
X166480957Y-130468000D01*
X166228750Y-130468000D01*
X166127000Y-130569750D01*
X166127000Y-131123000D01*
X166147000Y-131123000D01*
X166147000Y-131377000D01*
X166127000Y-131377000D01*
X166127000Y-131930250D01*
X166228750Y-132032000D01*
X166480957Y-132032000D01*
X166630547Y-131970038D01*
X166745038Y-131855547D01*
X166752506Y-131837518D01*
X166806570Y-131918430D01*
X166941197Y-132008385D01*
X166968000Y-132013716D01*
X166968000Y-132750000D01*
X167008496Y-132953588D01*
X167099765Y-133090182D01*
X167123819Y-133126181D01*
X167468000Y-133470362D01*
X167468000Y-133493000D01*
X167278750Y-133493000D01*
X167177000Y-133594750D01*
X167177000Y-134273000D01*
X167197000Y-134273000D01*
X167197000Y-134527000D01*
X167177000Y-134527000D01*
X167177000Y-134547000D01*
X166923000Y-134547000D01*
X166923000Y-134527000D01*
X166294750Y-134527000D01*
X166193000Y-134628750D01*
X166193000Y-134980958D01*
X166254962Y-135130547D01*
X166321206Y-135196791D01*
X166306570Y-135206570D01*
X166223033Y-135331592D01*
X166207726Y-135316258D01*
X165911226Y-135193140D01*
X165686193Y-135192944D01*
X165706532Y-135184540D01*
X165933742Y-134957726D01*
X166056860Y-134661226D01*
X166057140Y-134340182D01*
X165934540Y-134043468D01*
X165710506Y-133819042D01*
X166193000Y-133819042D01*
X166193000Y-134171250D01*
X166294750Y-134273000D01*
X166923000Y-134273000D01*
X166923000Y-133594750D01*
X166821250Y-133493000D01*
X166519043Y-133493000D01*
X166369453Y-133554962D01*
X166254962Y-133669453D01*
X166193000Y-133819042D01*
X165710506Y-133819042D01*
X165707726Y-133816258D01*
X165411226Y-133693140D01*
X165282000Y-133693027D01*
X165282000Y-132859204D01*
X165433742Y-132707726D01*
X165556860Y-132411226D01*
X165557140Y-132090182D01*
X165533100Y-132032000D01*
X165771250Y-132032000D01*
X165873000Y-131930250D01*
X165873000Y-131377000D01*
X165294750Y-131377000D01*
X165193000Y-131478750D01*
X165193000Y-131560143D01*
X164911226Y-131443140D01*
X164590182Y-131442860D01*
X164293468Y-131565460D01*
X164066258Y-131792274D01*
X163996601Y-131960027D01*
X163350000Y-131960027D01*
X163191197Y-131991615D01*
X163056570Y-132081570D01*
X163002506Y-132162482D01*
X162995038Y-132144453D01*
X162880547Y-132029962D01*
X162730957Y-131968000D01*
X162478750Y-131968000D01*
X162377002Y-132069748D01*
X162377002Y-131968000D01*
X162301715Y-131968000D01*
X162356932Y-131885362D01*
X162433585Y-131500000D01*
X162414973Y-131406431D01*
X162414973Y-130724181D01*
X162617804Y-130724181D01*
X162789778Y-131140389D01*
X163107936Y-131459103D01*
X163523843Y-131631803D01*
X163974181Y-131632196D01*
X164390389Y-131460222D01*
X164709103Y-131142064D01*
X164853614Y-130794042D01*
X165193000Y-130794042D01*
X165193000Y-131021250D01*
X165294750Y-131123000D01*
X165873000Y-131123000D01*
X165873000Y-130569750D01*
X165771250Y-130468000D01*
X165519043Y-130468000D01*
X165369453Y-130529962D01*
X165254962Y-130644453D01*
X165193000Y-130794042D01*
X164853614Y-130794042D01*
X164881803Y-130726157D01*
X164882196Y-130275819D01*
X164710222Y-129859611D01*
X164675628Y-129824957D01*
X164770038Y-129730547D01*
X164832000Y-129580957D01*
X164832000Y-129501750D01*
X164730250Y-129400000D01*
X164052747Y-129400000D01*
X163976157Y-129368197D01*
X163525819Y-129367804D01*
X163447899Y-129400000D01*
X162769750Y-129400000D01*
X162668000Y-129501750D01*
X162668000Y-129580957D01*
X162729962Y-129730547D01*
X162824153Y-129824738D01*
X162790897Y-129857936D01*
X162618197Y-130273843D01*
X162617804Y-130724181D01*
X162414973Y-130724181D01*
X162414973Y-130300000D01*
X162383385Y-130141197D01*
X162305745Y-130025000D01*
X162383385Y-129908803D01*
X162414973Y-129750000D01*
X162414973Y-128851750D01*
X162668000Y-128851750D01*
X162668000Y-128930957D01*
X162686243Y-128975000D01*
X162668000Y-129019043D01*
X162668000Y-129098250D01*
X162769750Y-129200000D01*
X162856432Y-129200000D01*
X162994042Y-129257000D01*
X163521250Y-129257000D01*
X163578250Y-129200000D01*
X163623000Y-129200000D01*
X163623000Y-128750000D01*
X163877000Y-128750000D01*
X163877000Y-129200000D01*
X163921750Y-129200000D01*
X163978750Y-129257000D01*
X164505958Y-129257000D01*
X164643568Y-129200000D01*
X164730250Y-129200000D01*
X164832000Y-129098250D01*
X164832000Y-129019043D01*
X164813757Y-128975000D01*
X164832000Y-128930957D01*
X164832000Y-128851750D01*
X164730250Y-128750000D01*
X164643568Y-128750000D01*
X164505958Y-128693000D01*
X163978750Y-128693000D01*
X163921750Y-128750000D01*
X163877000Y-128750000D01*
X163623000Y-128750000D01*
X163578250Y-128750000D01*
X163521250Y-128693000D01*
X162994042Y-128693000D01*
X162856432Y-128750000D01*
X162769750Y-128750000D01*
X162668000Y-128851750D01*
X162414973Y-128851750D01*
X162414973Y-128250000D01*
X162383385Y-128091197D01*
X162322449Y-128000000D01*
X162383385Y-127908803D01*
X162414973Y-127750000D01*
X162414973Y-126250000D01*
X162383385Y-126091197D01*
X162305745Y-125975000D01*
X162383385Y-125858803D01*
X162414973Y-125700000D01*
X162414973Y-124593569D01*
X162433585Y-124500000D01*
X162356932Y-124114638D01*
X162138642Y-123787943D01*
X161811947Y-123569653D01*
X161426585Y-123493000D01*
X160673415Y-123493000D01*
X160288053Y-123569653D01*
X160007000Y-123757446D01*
X160007000Y-122878750D01*
X161118000Y-122878750D01*
X161118000Y-123130958D01*
X161179962Y-123280547D01*
X161294453Y-123395038D01*
X161444043Y-123457000D01*
X161696250Y-123457000D01*
X161798000Y-123355250D01*
X161798000Y-122777000D01*
X161219750Y-122777000D01*
X161118000Y-122878750D01*
X160007000Y-122878750D01*
X160007000Y-122169042D01*
X161118000Y-122169042D01*
X161118000Y-122421250D01*
X161219750Y-122523000D01*
X161798000Y-122523000D01*
X161798000Y-121944750D01*
X162052000Y-121944750D01*
X162052000Y-122523000D01*
X162072000Y-122523000D01*
X162072000Y-122777000D01*
X162052000Y-122777000D01*
X162052000Y-123355250D01*
X162153750Y-123457000D01*
X162405957Y-123457000D01*
X162555547Y-123395038D01*
X162670038Y-123280547D01*
X162728035Y-123140531D01*
X162741615Y-123208803D01*
X162831570Y-123343430D01*
X162966197Y-123433385D01*
X162968000Y-123433744D01*
X162968000Y-123500000D01*
X163008496Y-123703588D01*
X163087115Y-123821250D01*
X163123819Y-123876181D01*
X163615520Y-124367882D01*
X163525819Y-124367804D01*
X163109611Y-124539778D01*
X162790897Y-124857936D01*
X162618197Y-125273843D01*
X162617804Y-125724181D01*
X162789778Y-126140389D01*
X162826125Y-126176799D01*
X162781570Y-126206570D01*
X162691615Y-126341197D01*
X162660027Y-126500000D01*
X162660027Y-126900000D01*
X162684891Y-127025000D01*
X162660027Y-127150000D01*
X162660027Y-127550000D01*
X162684891Y-127675000D01*
X162660027Y-127800000D01*
X162660027Y-128200000D01*
X162685330Y-128327205D01*
X162668000Y-128369043D01*
X162668000Y-128448250D01*
X162769750Y-128550000D01*
X162866233Y-128550000D01*
X162916197Y-128583385D01*
X163075000Y-128614973D01*
X164425000Y-128614973D01*
X164583803Y-128583385D01*
X164633767Y-128550000D01*
X164730250Y-128550000D01*
X164748250Y-128532000D01*
X165335027Y-128532000D01*
X165335027Y-128950000D01*
X165366615Y-129108803D01*
X165456570Y-129243430D01*
X165591197Y-129333385D01*
X165750000Y-129364973D01*
X166250000Y-129364973D01*
X166408803Y-129333385D01*
X166543430Y-129243430D01*
X166633385Y-129108803D01*
X166664973Y-128950000D01*
X166664973Y-128050000D01*
X166633385Y-127891197D01*
X166543430Y-127756570D01*
X166533597Y-127750000D01*
X166543430Y-127743430D01*
X166633385Y-127608803D01*
X166664973Y-127450000D01*
X166664973Y-126550000D01*
X166633385Y-126391197D01*
X166543430Y-126256570D01*
X166408803Y-126166615D01*
X166250000Y-126135027D01*
X165807101Y-126135027D01*
X165807140Y-126090182D01*
X165691897Y-125811272D01*
X165793430Y-125743430D01*
X165883385Y-125608803D01*
X165914973Y-125450000D01*
X165914973Y-124550000D01*
X165883385Y-124391197D01*
X165793430Y-124256570D01*
X165658803Y-124166615D01*
X165500000Y-124135027D01*
X165000000Y-124135027D01*
X164906072Y-124153710D01*
X164162180Y-123409818D01*
X165192860Y-123409818D01*
X165315460Y-123706532D01*
X165542274Y-123933742D01*
X165838774Y-124056860D01*
X166159818Y-124057140D01*
X166230195Y-124028061D01*
X166250000Y-124032000D01*
X166529638Y-124032000D01*
X166632665Y-124135027D01*
X166500000Y-124135027D01*
X166341197Y-124166615D01*
X166206570Y-124256570D01*
X166116615Y-124391197D01*
X166085027Y-124550000D01*
X166085027Y-125450000D01*
X166116615Y-125608803D01*
X166206570Y-125743430D01*
X166341197Y-125833385D01*
X166500000Y-125864973D01*
X166777629Y-125864973D01*
X166815460Y-125956532D01*
X167042274Y-126183742D01*
X167056638Y-126189707D01*
X166956570Y-126256570D01*
X166866615Y-126391197D01*
X166835027Y-126550000D01*
X166835027Y-127450000D01*
X166866615Y-127608803D01*
X166956570Y-127743430D01*
X166966403Y-127750000D01*
X166956570Y-127756570D01*
X166866615Y-127891197D01*
X166835027Y-128050000D01*
X166835027Y-128950000D01*
X166866615Y-129108803D01*
X166956570Y-129243430D01*
X167091197Y-129333385D01*
X167250000Y-129364973D01*
X167750000Y-129364973D01*
X167908803Y-129333385D01*
X168043430Y-129243430D01*
X168133385Y-129108803D01*
X168164973Y-128950000D01*
X168164973Y-128682000D01*
X169643000Y-128682000D01*
X169643000Y-128721250D01*
X169744750Y-128823000D01*
X169964671Y-128823000D01*
X170050000Y-128839973D01*
X171550000Y-128839973D01*
X171635329Y-128823000D01*
X171855250Y-128823000D01*
X171957000Y-128721250D01*
X171957000Y-128594042D01*
X171939670Y-128552205D01*
X171964973Y-128425000D01*
X171964973Y-127875000D01*
X171940109Y-127750000D01*
X171964973Y-127625000D01*
X171964973Y-127075000D01*
X171940109Y-126950000D01*
X171964973Y-126825000D01*
X171964973Y-126282000D01*
X172279638Y-126282000D01*
X172623819Y-126626181D01*
X172796412Y-126741504D01*
X173000000Y-126782000D01*
X179140796Y-126782000D01*
X179292274Y-126933742D01*
X179588774Y-127056860D01*
X179909818Y-127057140D01*
X180206532Y-126934540D01*
X180433742Y-126707726D01*
X180556860Y-126411226D01*
X180557140Y-126090182D01*
X180434540Y-125793468D01*
X180207726Y-125566258D01*
X179911226Y-125443140D01*
X179590182Y-125442860D01*
X179293468Y-125565460D01*
X179140662Y-125718000D01*
X173220362Y-125718000D01*
X172876181Y-125373819D01*
X172703588Y-125258496D01*
X172500000Y-125218000D01*
X171867772Y-125218000D01*
X171843430Y-125181570D01*
X171708803Y-125091615D01*
X171550000Y-125060027D01*
X170050000Y-125060027D01*
X169891197Y-125091615D01*
X169756570Y-125181570D01*
X169666615Y-125316197D01*
X169635027Y-125475000D01*
X169635027Y-126025000D01*
X169659891Y-126150000D01*
X169635027Y-126275000D01*
X169635027Y-126818000D01*
X168164973Y-126818000D01*
X168164973Y-126550000D01*
X168133385Y-126391197D01*
X168043430Y-126256570D01*
X167943616Y-126189877D01*
X167956532Y-126184540D01*
X168183742Y-125957726D01*
X168306860Y-125661226D01*
X168307140Y-125340182D01*
X168184540Y-125043468D01*
X167957726Y-124816258D01*
X167875224Y-124782000D01*
X171810027Y-124782000D01*
X171810027Y-124800000D01*
X171841615Y-124958803D01*
X171931570Y-125093430D01*
X172066197Y-125183385D01*
X172225000Y-125214973D01*
X172775000Y-125214973D01*
X172902205Y-125189670D01*
X172944042Y-125207000D01*
X173071250Y-125207000D01*
X173173000Y-125105250D01*
X173173000Y-124885329D01*
X173189973Y-124800000D01*
X173189973Y-123300000D01*
X173173000Y-123214671D01*
X173173000Y-122994750D01*
X173071250Y-122893000D01*
X172944042Y-122893000D01*
X172902205Y-122910330D01*
X172775000Y-122885027D01*
X172225000Y-122885027D01*
X172066197Y-122916615D01*
X171931570Y-123006570D01*
X171841615Y-123141197D01*
X171810027Y-123300000D01*
X171810027Y-123718000D01*
X167720362Y-123718000D01*
X167126181Y-123123819D01*
X166953588Y-123008496D01*
X166757251Y-122969442D01*
X166684540Y-122793468D01*
X166457726Y-122566258D01*
X166161226Y-122443140D01*
X165840182Y-122442860D01*
X165543468Y-122565460D01*
X165316258Y-122792274D01*
X165193140Y-123088774D01*
X165192860Y-123409818D01*
X164162180Y-123409818D01*
X164144914Y-123392552D01*
X164218430Y-123343430D01*
X164308385Y-123208803D01*
X164339973Y-123050000D01*
X164339973Y-122250000D01*
X164308385Y-122091197D01*
X164218430Y-121956570D01*
X164083803Y-121866615D01*
X163925000Y-121835027D01*
X163125000Y-121835027D01*
X162966197Y-121866615D01*
X162831570Y-121956570D01*
X162741615Y-122091197D01*
X162728035Y-122159469D01*
X162670038Y-122019453D01*
X162555547Y-121904962D01*
X162405957Y-121843000D01*
X162153750Y-121843000D01*
X162052000Y-121944750D01*
X161798000Y-121944750D01*
X161696250Y-121843000D01*
X161444043Y-121843000D01*
X161294453Y-121904962D01*
X161179962Y-122019453D01*
X161118000Y-122169042D01*
X160007000Y-122169042D01*
X160007000Y-120528750D01*
X161118000Y-120528750D01*
X161118000Y-120780958D01*
X161179962Y-120930547D01*
X161294453Y-121045038D01*
X161444043Y-121107000D01*
X161696250Y-121107000D01*
X161798000Y-121005250D01*
X161798000Y-120427000D01*
X161219750Y-120427000D01*
X161118000Y-120528750D01*
X160007000Y-120528750D01*
X160007000Y-119819042D01*
X161118000Y-119819042D01*
X161118000Y-120071250D01*
X161219750Y-120173000D01*
X161798000Y-120173000D01*
X161798000Y-119594750D01*
X162052000Y-119594750D01*
X162052000Y-120173000D01*
X162072000Y-120173000D01*
X162072000Y-120427000D01*
X162052000Y-120427000D01*
X162052000Y-121005250D01*
X162153750Y-121107000D01*
X162405957Y-121107000D01*
X162555547Y-121045038D01*
X162670038Y-120930547D01*
X162728035Y-120790531D01*
X162741615Y-120858803D01*
X162831570Y-120993430D01*
X162966197Y-121083385D01*
X163125000Y-121114973D01*
X163925000Y-121114973D01*
X164083803Y-121083385D01*
X164218430Y-120993430D01*
X164308385Y-120858803D01*
X164313716Y-120832000D01*
X164579638Y-120832000D01*
X164625515Y-120877877D01*
X164616615Y-120891197D01*
X164585027Y-121050000D01*
X164585027Y-121950000D01*
X164616615Y-122108803D01*
X164706570Y-122243430D01*
X164841197Y-122333385D01*
X165000000Y-122364973D01*
X165500000Y-122364973D01*
X165658803Y-122333385D01*
X165793430Y-122243430D01*
X165883385Y-122108803D01*
X165914973Y-121950000D01*
X165914973Y-121050000D01*
X166085027Y-121050000D01*
X166085027Y-121950000D01*
X166116615Y-122108803D01*
X166206570Y-122243430D01*
X166341197Y-122333385D01*
X166500000Y-122364973D01*
X166862611Y-122364973D01*
X167193047Y-122695409D01*
X167192860Y-122909818D01*
X167315460Y-123206532D01*
X167542274Y-123433742D01*
X167838774Y-123556860D01*
X168159818Y-123557140D01*
X168456532Y-123434540D01*
X168683742Y-123207726D01*
X168806860Y-122911226D01*
X168807140Y-122590182D01*
X168793445Y-122557039D01*
X168909818Y-122557140D01*
X169206532Y-122434540D01*
X169433742Y-122207726D01*
X169472659Y-122114005D01*
X169542274Y-122183742D01*
X169838774Y-122306860D01*
X170159818Y-122307140D01*
X170456532Y-122184540D01*
X170683742Y-121957726D01*
X170806860Y-121661226D01*
X170807140Y-121340182D01*
X170684540Y-121043468D01*
X170457726Y-120816258D01*
X170161226Y-120693140D01*
X170082000Y-120693071D01*
X170082000Y-120542033D01*
X170315090Y-120386288D01*
X170549638Y-120035261D01*
X170550000Y-120033441D01*
X170550362Y-120035261D01*
X170784910Y-120386288D01*
X170998810Y-120529211D01*
X171033496Y-120703588D01*
X171131884Y-120850836D01*
X171148819Y-120876181D01*
X172423819Y-122151181D01*
X172596412Y-122266504D01*
X172800000Y-122307000D01*
X173279638Y-122307000D01*
X173857665Y-122885027D01*
X173825000Y-122885027D01*
X173697795Y-122910330D01*
X173655958Y-122893000D01*
X173528750Y-122893000D01*
X173427000Y-122994750D01*
X173427000Y-123214671D01*
X173410027Y-123300000D01*
X173410027Y-124800000D01*
X173427000Y-124885329D01*
X173427000Y-125105250D01*
X173528750Y-125207000D01*
X173655958Y-125207000D01*
X173697795Y-125189670D01*
X173825000Y-125214973D01*
X174375000Y-125214973D01*
X174500000Y-125190109D01*
X174625000Y-125214973D01*
X175175000Y-125214973D01*
X175300000Y-125190109D01*
X175425000Y-125214973D01*
X175975000Y-125214973D01*
X176100000Y-125190109D01*
X176225000Y-125214973D01*
X176775000Y-125214973D01*
X176900000Y-125190109D01*
X177025000Y-125214973D01*
X177575000Y-125214973D01*
X177700000Y-125190109D01*
X177825000Y-125214973D01*
X178375000Y-125214973D01*
X178500000Y-125190109D01*
X178625000Y-125214973D01*
X179175000Y-125214973D01*
X179302205Y-125189670D01*
X179344042Y-125207000D01*
X179471250Y-125207000D01*
X179573000Y-125105250D01*
X179573000Y-124885329D01*
X179589973Y-124800000D01*
X179589973Y-123300000D01*
X179573000Y-123214671D01*
X179573000Y-123004362D01*
X181951181Y-120626181D01*
X181953325Y-120622972D01*
X181964063Y-120620836D01*
X182315090Y-120386288D01*
X182549638Y-120035261D01*
X182632000Y-119621198D01*
X182632000Y-119578802D01*
X182549638Y-119164739D01*
X182315090Y-118813712D01*
X181964063Y-118579164D01*
X181550000Y-118496802D01*
X181135937Y-118579164D01*
X180784910Y-118813712D01*
X180550362Y-119164739D01*
X180550000Y-119166559D01*
X180549638Y-119164739D01*
X180315090Y-118813712D01*
X179964063Y-118579164D01*
X179550000Y-118496802D01*
X179135937Y-118579164D01*
X178784910Y-118813712D01*
X178550362Y-119164739D01*
X178550000Y-119166559D01*
X178549638Y-119164739D01*
X178315090Y-118813712D01*
X177964063Y-118579164D01*
X177550000Y-118496802D01*
X177135937Y-118579164D01*
X176784910Y-118813712D01*
X176550362Y-119164739D01*
X176550000Y-119166559D01*
X176549638Y-119164739D01*
X176315090Y-118813712D01*
X175964063Y-118579164D01*
X175550000Y-118496802D01*
X175135937Y-118579164D01*
X174784910Y-118813712D01*
X174550362Y-119164739D01*
X174550000Y-119166559D01*
X174549638Y-119164739D01*
X174315090Y-118813712D01*
X173964063Y-118579164D01*
X173550000Y-118496802D01*
X173135937Y-118579164D01*
X172784910Y-118813712D01*
X172550362Y-119164739D01*
X172550000Y-119166559D01*
X172549638Y-119164739D01*
X172315090Y-118813712D01*
X171964063Y-118579164D01*
X171550000Y-118496802D01*
X171135937Y-118579164D01*
X170784910Y-118813712D01*
X170550362Y-119164739D01*
X170550000Y-119166559D01*
X170549638Y-119164739D01*
X170315090Y-118813712D01*
X169964063Y-118579164D01*
X169550000Y-118496802D01*
X169135937Y-118579164D01*
X168784910Y-118813712D01*
X168639973Y-119030626D01*
X168639973Y-118925000D01*
X168608385Y-118766197D01*
X168518430Y-118631570D01*
X168383803Y-118541615D01*
X168225000Y-118510027D01*
X166875000Y-118510027D01*
X166716197Y-118541615D01*
X166581570Y-118631570D01*
X166491615Y-118766197D01*
X166460027Y-118925000D01*
X166460027Y-120275000D01*
X166491615Y-120433803D01*
X166581570Y-120568430D01*
X166681239Y-120635027D01*
X166500000Y-120635027D01*
X166341197Y-120666615D01*
X166206570Y-120756570D01*
X166116615Y-120891197D01*
X166085027Y-121050000D01*
X165914973Y-121050000D01*
X165883385Y-120891197D01*
X165793430Y-120756570D01*
X165781755Y-120748769D01*
X165741504Y-120546412D01*
X165626181Y-120373819D01*
X165176181Y-119923819D01*
X165137687Y-119898098D01*
X165003588Y-119808496D01*
X164800000Y-119768000D01*
X164313716Y-119768000D01*
X164308385Y-119741197D01*
X164218430Y-119606570D01*
X164083803Y-119516615D01*
X163925000Y-119485027D01*
X163125000Y-119485027D01*
X162966197Y-119516615D01*
X162831570Y-119606570D01*
X162741615Y-119741197D01*
X162728035Y-119809469D01*
X162670038Y-119669453D01*
X162555547Y-119554962D01*
X162405957Y-119493000D01*
X162153750Y-119493000D01*
X162052000Y-119594750D01*
X161798000Y-119594750D01*
X161696250Y-119493000D01*
X161444043Y-119493000D01*
X161294453Y-119554962D01*
X161179962Y-119669453D01*
X161118000Y-119819042D01*
X160007000Y-119819042D01*
X160007000Y-117395164D01*
X160534441Y-117395164D01*
X160792153Y-117722620D01*
X161753685Y-118111327D01*
X162790776Y-118102483D01*
X163707847Y-117722620D01*
X163965559Y-117395164D01*
X162250000Y-115679605D01*
X160534441Y-117395164D01*
X160007000Y-117395164D01*
X160007000Y-116908645D01*
X160027380Y-116957847D01*
X160354836Y-117215559D01*
X162070395Y-115500000D01*
X162429605Y-115500000D01*
X164145164Y-117215559D01*
X164472620Y-116957847D01*
X164861327Y-115996315D01*
X164852483Y-114959224D01*
X164472620Y-114042153D01*
X164145164Y-113784441D01*
X162429605Y-115500000D01*
X162070395Y-115500000D01*
X160354836Y-113784441D01*
X160027380Y-114042153D01*
X160007000Y-114092566D01*
X160007000Y-113257000D01*
X160841355Y-113257000D01*
X160792153Y-113277380D01*
X160792153Y-113277380D01*
G37*
X160792153Y-113277380D02*
X160534441Y-113604836D01*
X162250000Y-115320395D01*
X163965559Y-113604836D01*
X163707847Y-113277380D01*
X163657434Y-113257000D01*
X185493000Y-113257000D01*
X185493000Y-146993000D01*
X163658645Y-146993000D01*
X163707847Y-146972620D01*
X163965559Y-146645164D01*
X162250000Y-144929605D01*
X160534441Y-146645164D01*
X160792153Y-146972620D01*
X160842566Y-146993000D01*
X160007000Y-146993000D01*
X160007000Y-146158645D01*
X160027380Y-146207847D01*
X160354836Y-146465559D01*
X162070395Y-144750000D01*
X162429605Y-144750000D01*
X164145164Y-146465559D01*
X164472620Y-146207847D01*
X164861327Y-145246315D01*
X164852483Y-144209224D01*
X164472620Y-143292153D01*
X164145164Y-143034441D01*
X162429605Y-144750000D01*
X162070395Y-144750000D01*
X160354836Y-143034441D01*
X160027380Y-143292153D01*
X160007000Y-143342566D01*
X160007000Y-142854836D01*
X160534441Y-142854836D01*
X162250000Y-144570395D01*
X163965559Y-142854836D01*
X163707847Y-142527380D01*
X163587553Y-142478750D01*
X164718000Y-142478750D01*
X164718000Y-142730957D01*
X164779962Y-142880547D01*
X164894453Y-142995038D01*
X165044042Y-143057000D01*
X165271250Y-143057000D01*
X165373000Y-142955250D01*
X165373000Y-142377000D01*
X165627000Y-142377000D01*
X165627000Y-142955250D01*
X165728750Y-143057000D01*
X165955958Y-143057000D01*
X166105547Y-142995038D01*
X166220038Y-142880547D01*
X166282000Y-142730957D01*
X166282000Y-142478750D01*
X166180250Y-142377000D01*
X165627000Y-142377000D01*
X165373000Y-142377000D01*
X164819750Y-142377000D01*
X164718000Y-142478750D01*
X163587553Y-142478750D01*
X162746315Y-142138673D01*
X161709224Y-142147517D01*
X160792153Y-142527380D01*
X160534441Y-142854836D01*
X160007000Y-142854836D01*
X160007000Y-141794014D01*
X160314739Y-141999638D01*
X160728802Y-142082000D01*
X160771198Y-142082000D01*
X161185261Y-141999638D01*
X161510980Y-141782000D01*
X164250000Y-141782000D01*
X164453588Y-141741504D01*
X164626181Y-141626181D01*
X164822502Y-141429860D01*
X164831570Y-141443430D01*
X164912482Y-141497494D01*
X164894453Y-141504962D01*
X164779962Y-141619453D01*
X164718000Y-141769043D01*
X164718000Y-142021250D01*
X164819750Y-142123000D01*
X165373000Y-142123000D01*
X165373000Y-142103000D01*
X165627000Y-142103000D01*
X165627000Y-142123000D01*
X166180250Y-142123000D01*
X166205869Y-142097381D01*
X166229962Y-142155547D01*
X166344453Y-142270038D01*
X166494042Y-142332000D01*
X167021250Y-142332000D01*
X167123000Y-142230250D01*
X167123000Y-141377000D01*
X167103000Y-141377000D01*
X167103000Y-141123000D01*
X167123000Y-141123000D01*
X167123000Y-141103000D01*
X167377000Y-141103000D01*
X167377000Y-141123000D01*
X167397000Y-141123000D01*
X167397000Y-141377000D01*
X167377000Y-141377000D01*
X167377000Y-142230250D01*
X167478750Y-142332000D01*
X168005958Y-142332000D01*
X168155547Y-142270038D01*
X168270038Y-142155547D01*
X168332000Y-142005957D01*
X168332000Y-141807441D01*
X168484910Y-142036288D01*
X168835937Y-142270836D01*
X169250000Y-142353198D01*
X169664063Y-142270836D01*
X170015090Y-142036288D01*
X170249638Y-141685261D01*
X170250000Y-141683441D01*
X170250362Y-141685261D01*
X170484910Y-142036288D01*
X170835937Y-142270836D01*
X171250000Y-142353198D01*
X171664063Y-142270836D01*
X172015090Y-142036288D01*
X172249638Y-141685261D01*
X172250000Y-141683441D01*
X172250362Y-141685261D01*
X172484910Y-142036288D01*
X172835937Y-142270836D01*
X173250000Y-142353198D01*
X173664063Y-142270836D01*
X174015090Y-142036288D01*
X174249638Y-141685261D01*
X174250000Y-141683441D01*
X174250362Y-141685261D01*
X174484910Y-142036288D01*
X174835937Y-142270836D01*
X175250000Y-142353198D01*
X175664063Y-142270836D01*
X176015090Y-142036288D01*
X176249638Y-141685261D01*
X176250000Y-141683441D01*
X176250362Y-141685261D01*
X176484910Y-142036288D01*
X176835937Y-142270836D01*
X177250000Y-142353198D01*
X177664063Y-142270836D01*
X178015090Y-142036288D01*
X178249638Y-141685261D01*
X178250000Y-141683441D01*
X178250362Y-141685261D01*
X178484910Y-142036288D01*
X178835937Y-142270836D01*
X179250000Y-142353198D01*
X179664063Y-142270836D01*
X180015090Y-142036288D01*
X180249638Y-141685261D01*
X180258375Y-141641335D01*
X180400166Y-141919728D01*
X180721150Y-142193965D01*
X180956471Y-142291425D01*
X181123000Y-142221988D01*
X181123000Y-141377000D01*
X181103000Y-141377000D01*
X181103000Y-141123000D01*
X181123000Y-141123000D01*
X181123000Y-141103000D01*
X181377000Y-141103000D01*
X181377000Y-141123000D01*
X181397000Y-141123000D01*
X181397000Y-141377000D01*
X181377000Y-141377000D01*
X181377000Y-142221988D01*
X181543529Y-142291425D01*
X181778850Y-142193965D01*
X182099834Y-141919728D01*
X182291438Y-141543531D01*
X182222785Y-141377002D01*
X182332000Y-141377002D01*
X182332000Y-141334362D01*
X182373819Y-141376181D01*
X182546412Y-141491504D01*
X182750000Y-141532000D01*
X183326550Y-141532000D01*
X183316258Y-141542274D01*
X183193140Y-141838774D01*
X183192860Y-142159818D01*
X183315460Y-142456532D01*
X183542274Y-142683742D01*
X183838774Y-142806860D01*
X184159818Y-142807140D01*
X184456532Y-142684540D01*
X184683742Y-142457726D01*
X184806860Y-142161226D01*
X184807048Y-141945314D01*
X185126181Y-141626181D01*
X185127759Y-141623819D01*
X185241504Y-141453588D01*
X185282000Y-141250000D01*
X185282000Y-136250000D01*
X185241504Y-136046412D01*
X185126181Y-135873819D01*
X185032000Y-135779638D01*
X185032000Y-134220362D01*
X185251181Y-134001181D01*
X185266169Y-133978750D01*
X185366504Y-133828588D01*
X185407000Y-133625000D01*
X185407000Y-131875000D01*
X185366504Y-131671412D01*
X185251181Y-131498819D01*
X183926181Y-130173819D01*
X183912942Y-130164973D01*
X183753588Y-130058496D01*
X183550000Y-130018000D01*
X183364973Y-130018000D01*
X183364973Y-129475000D01*
X183340109Y-129350000D01*
X183364973Y-129225000D01*
X183364973Y-128675000D01*
X183340109Y-128550000D01*
X183357820Y-128460959D01*
X183588774Y-128556860D01*
X183909818Y-128557140D01*
X184206532Y-128434540D01*
X184433742Y-128207726D01*
X184556860Y-127911226D01*
X184557140Y-127590182D01*
X184434540Y-127293468D01*
X184266271Y-127124905D01*
X184433742Y-126957726D01*
X184556860Y-126661226D01*
X184557140Y-126340182D01*
X184434540Y-126043468D01*
X184266271Y-125874905D01*
X184433742Y-125707726D01*
X184556860Y-125411226D01*
X184557140Y-125090182D01*
X184434540Y-124793468D01*
X184207726Y-124566258D01*
X183911226Y-124443140D01*
X183695314Y-124442952D01*
X182926181Y-123673819D01*
X182915233Y-123666504D01*
X182753588Y-123558496D01*
X182550000Y-123518000D01*
X181189973Y-123518000D01*
X181189973Y-123300000D01*
X181158385Y-123141197D01*
X181068430Y-123006570D01*
X180933803Y-122916615D01*
X180775000Y-122885027D01*
X180225000Y-122885027D01*
X180097795Y-122910330D01*
X180055958Y-122893000D01*
X179928750Y-122893000D01*
X179827000Y-122994750D01*
X179827000Y-123214671D01*
X179810027Y-123300000D01*
X179810027Y-124800000D01*
X179827000Y-124885329D01*
X179827000Y-125105250D01*
X179928750Y-125207000D01*
X180055958Y-125207000D01*
X180097795Y-125189670D01*
X180225000Y-125214973D01*
X180775000Y-125214973D01*
X180933803Y-125183385D01*
X181068430Y-125093430D01*
X181158385Y-124958803D01*
X181189973Y-124800000D01*
X181189973Y-124582000D01*
X182329638Y-124582000D01*
X182807665Y-125060027D01*
X181450000Y-125060027D01*
X181291197Y-125091615D01*
X181156570Y-125181570D01*
X181066615Y-125316197D01*
X181035027Y-125475000D01*
X181035027Y-126025000D01*
X181059891Y-126150000D01*
X181035027Y-126275000D01*
X181035027Y-126825000D01*
X181059891Y-126950000D01*
X181035027Y-127075000D01*
X181035027Y-127625000D01*
X181053526Y-127718000D01*
X181000005Y-127718000D01*
X181000000Y-127717999D01*
X180796413Y-127758495D01*
X180758537Y-127783803D01*
X180623819Y-127873819D01*
X180623817Y-127873822D01*
X179623819Y-128873819D01*
X179508496Y-129046412D01*
X179468000Y-129250000D01*
X179468000Y-130529638D01*
X179439110Y-130558528D01*
X179161226Y-130443140D01*
X178840182Y-130442860D01*
X178543468Y-130565460D01*
X178316258Y-130792274D01*
X178193140Y-131088774D01*
X178192860Y-131409818D01*
X178315460Y-131706532D01*
X178483729Y-131875095D01*
X178316258Y-132042274D01*
X178193140Y-132338774D01*
X178192860Y-132659818D01*
X178315460Y-132956532D01*
X178542274Y-133183742D01*
X178838774Y-133306860D01*
X178942950Y-133306951D01*
X178942860Y-133409818D01*
X179065460Y-133706532D01*
X179292274Y-133933742D01*
X179588774Y-134056860D01*
X179909818Y-134057140D01*
X180099535Y-133978750D01*
X181043000Y-133978750D01*
X181043000Y-134105958D01*
X181104962Y-134255547D01*
X181219453Y-134370038D01*
X181369043Y-134432000D01*
X181971250Y-134432000D01*
X182073000Y-134330250D01*
X182073000Y-133877000D01*
X181144750Y-133877000D01*
X181043000Y-133978750D01*
X180099535Y-133978750D01*
X180206532Y-133934540D01*
X180433742Y-133707726D01*
X180509974Y-133524139D01*
X180588774Y-133556860D01*
X180909818Y-133557140D01*
X181043000Y-133502110D01*
X181043000Y-133521250D01*
X181144750Y-133623000D01*
X181364671Y-133623000D01*
X181450000Y-133639973D01*
X182347000Y-133639973D01*
X182347000Y-133877000D01*
X182327000Y-133877000D01*
X182327000Y-134330250D01*
X182428750Y-134432000D01*
X182968000Y-134432000D01*
X182968000Y-135279638D01*
X182812611Y-135435027D01*
X182375000Y-135435027D01*
X182216197Y-135466615D01*
X182081570Y-135556570D01*
X181991615Y-135691197D01*
X181960027Y-135850000D01*
X181960027Y-136650000D01*
X181991615Y-136808803D01*
X182081570Y-136943430D01*
X182162482Y-136997494D01*
X182144453Y-137004962D01*
X182029962Y-137119453D01*
X181968000Y-137269043D01*
X181968000Y-137521250D01*
X182069750Y-137623000D01*
X182623000Y-137623000D01*
X182623000Y-137603000D01*
X182877000Y-137603000D01*
X182877000Y-137623000D01*
X182897000Y-137623000D01*
X182897000Y-137877000D01*
X182877000Y-137877000D01*
X182877000Y-138455250D01*
X182978750Y-138557000D01*
X183205958Y-138557000D01*
X183218000Y-138552012D01*
X183218000Y-139192971D01*
X183090182Y-139192860D01*
X182793468Y-139315460D01*
X182566258Y-139542274D01*
X182443140Y-139838774D01*
X182443051Y-139940689D01*
X182191472Y-139689110D01*
X182306860Y-139411226D01*
X182307140Y-139090182D01*
X182184540Y-138793468D01*
X181957726Y-138566258D01*
X181782000Y-138493290D01*
X181782000Y-137978750D01*
X181968000Y-137978750D01*
X181968000Y-138230957D01*
X182029962Y-138380547D01*
X182144453Y-138495038D01*
X182294042Y-138557000D01*
X182521250Y-138557000D01*
X182623000Y-138455250D01*
X182623000Y-137877000D01*
X182069750Y-137877000D01*
X181968000Y-137978750D01*
X181782000Y-137978750D01*
X181782000Y-137250000D01*
X181741504Y-137046412D01*
X181626181Y-136873819D01*
X181139471Y-136387109D01*
X181158385Y-136358803D01*
X181189973Y-136200000D01*
X181189973Y-134700000D01*
X181158385Y-134541197D01*
X181068430Y-134406570D01*
X180933803Y-134316615D01*
X180775000Y-134285027D01*
X180225000Y-134285027D01*
X180100000Y-134309891D01*
X179975000Y-134285027D01*
X179425000Y-134285027D01*
X179300000Y-134309891D01*
X179175000Y-134285027D01*
X178625000Y-134285027D01*
X178500000Y-134309891D01*
X178375000Y-134285027D01*
X177825000Y-134285027D01*
X177700000Y-134309891D01*
X177575000Y-134285027D01*
X177025000Y-134285027D01*
X176900000Y-134309891D01*
X176775000Y-134285027D01*
X176225000Y-134285027D01*
X176100000Y-134309891D01*
X175975000Y-134285027D01*
X175425000Y-134285027D01*
X175297795Y-134310330D01*
X175255958Y-134293000D01*
X175128750Y-134293000D01*
X175027000Y-134394750D01*
X175027000Y-134614671D01*
X175010027Y-134700000D01*
X175010027Y-136200000D01*
X175027000Y-136285329D01*
X175027000Y-136505250D01*
X175128750Y-136607000D01*
X175218000Y-136607000D01*
X175218000Y-136779638D01*
X174923819Y-137073819D01*
X174918499Y-137081782D01*
X174806570Y-137156570D01*
X174716615Y-137291197D01*
X174685027Y-137450000D01*
X174685027Y-139550000D01*
X174716615Y-139708803D01*
X174806570Y-139843430D01*
X174941197Y-139933385D01*
X175100000Y-139964973D01*
X175500000Y-139964973D01*
X175658803Y-139933385D01*
X175793430Y-139843430D01*
X175883385Y-139708803D01*
X175896965Y-139640531D01*
X175954962Y-139780547D01*
X176069453Y-139895038D01*
X176219043Y-139957000D01*
X176298250Y-139957000D01*
X176400000Y-139855250D01*
X176400000Y-138627000D01*
X176353000Y-138627000D01*
X176353000Y-138373000D01*
X176400000Y-138373000D01*
X176400000Y-138353000D01*
X176600000Y-138353000D01*
X176600000Y-138373000D01*
X176647000Y-138373000D01*
X176647000Y-138627000D01*
X176600000Y-138627000D01*
X176600000Y-139855250D01*
X176701750Y-139957000D01*
X176780957Y-139957000D01*
X176930547Y-139895038D01*
X177045038Y-139780547D01*
X177103035Y-139640531D01*
X177116615Y-139708803D01*
X177206570Y-139843430D01*
X177341197Y-139933385D01*
X177500000Y-139964973D01*
X177900000Y-139964973D01*
X178058803Y-139933385D01*
X178075228Y-139922410D01*
X177726653Y-140270985D01*
X177664063Y-140229164D01*
X177250000Y-140146802D01*
X176835937Y-140229164D01*
X176484910Y-140463712D01*
X176250362Y-140814739D01*
X176250000Y-140816559D01*
X176249638Y-140814739D01*
X176015090Y-140463712D01*
X175664063Y-140229164D01*
X175250000Y-140146802D01*
X174835937Y-140229164D01*
X174484910Y-140463712D01*
X174250362Y-140814739D01*
X174250000Y-140816559D01*
X174249638Y-140814739D01*
X174015090Y-140463712D01*
X173664063Y-140229164D01*
X173250000Y-140146802D01*
X172835937Y-140229164D01*
X172484910Y-140463712D01*
X172250362Y-140814739D01*
X172250000Y-140816559D01*
X172249638Y-140814739D01*
X172015090Y-140463712D01*
X171664063Y-140229164D01*
X171250000Y-140146802D01*
X170835937Y-140229164D01*
X170484910Y-140463712D01*
X170250362Y-140814739D01*
X170250000Y-140816559D01*
X170249638Y-140814739D01*
X170015090Y-140463712D01*
X169664063Y-140229164D01*
X169250000Y-140146802D01*
X168835937Y-140229164D01*
X168484910Y-140463712D01*
X168332000Y-140692559D01*
X168332000Y-140494043D01*
X168270038Y-140344453D01*
X168155547Y-140229962D01*
X168059005Y-140189973D01*
X168130000Y-140189973D01*
X168288803Y-140158385D01*
X168423430Y-140068430D01*
X168513385Y-139933803D01*
X168544973Y-139775000D01*
X168544973Y-139125000D01*
X168513385Y-138966197D01*
X168423430Y-138831570D01*
X168288803Y-138741615D01*
X168130000Y-138710027D01*
X167292335Y-138710027D01*
X167712389Y-138289973D01*
X168130000Y-138289973D01*
X168186421Y-138278750D01*
X168693000Y-138278750D01*
X168693000Y-138530957D01*
X168754962Y-138680547D01*
X168869453Y-138795038D01*
X169019042Y-138857000D01*
X169271250Y-138857000D01*
X169373000Y-138755250D01*
X169373000Y-138177000D01*
X169627000Y-138177000D01*
X169627000Y-138755250D01*
X169728750Y-138857000D01*
X169980958Y-138857000D01*
X170130547Y-138795038D01*
X170245038Y-138680547D01*
X170307000Y-138530957D01*
X170307000Y-138278750D01*
X170205250Y-138177000D01*
X169627000Y-138177000D01*
X169373000Y-138177000D01*
X168794750Y-138177000D01*
X168693000Y-138278750D01*
X168186421Y-138278750D01*
X168288803Y-138258385D01*
X168423430Y-138168430D01*
X168513385Y-138033803D01*
X168544973Y-137875000D01*
X168544973Y-137225000D01*
X168532000Y-137159781D01*
X168532000Y-133283285D01*
X168588774Y-133306860D01*
X168909818Y-133307140D01*
X169206532Y-133184540D01*
X169433742Y-132957726D01*
X169556860Y-132661226D01*
X169557048Y-132445314D01*
X169635027Y-132367335D01*
X169635027Y-132425000D01*
X169659891Y-132550000D01*
X169635027Y-132675000D01*
X169635027Y-133225000D01*
X169659891Y-133350000D01*
X169635027Y-133475000D01*
X169635027Y-134025000D01*
X169663869Y-134170000D01*
X169658803Y-134166615D01*
X169500000Y-134135027D01*
X169000000Y-134135027D01*
X168841197Y-134166615D01*
X168706570Y-134256570D01*
X168616615Y-134391197D01*
X168585027Y-134550000D01*
X168585027Y-135450000D01*
X168616615Y-135608803D01*
X168706570Y-135743430D01*
X168718000Y-135751067D01*
X168718000Y-135889124D01*
X168716615Y-135891197D01*
X168685027Y-136050000D01*
X168685027Y-136850000D01*
X168716615Y-137008803D01*
X168806570Y-137143430D01*
X168941197Y-137233385D01*
X169009469Y-137246965D01*
X168869453Y-137304962D01*
X168754962Y-137419453D01*
X168693000Y-137569043D01*
X168693000Y-137821250D01*
X168794750Y-137923000D01*
X169373000Y-137923000D01*
X169373000Y-137903000D01*
X169627000Y-137903000D01*
X169627000Y-137923000D01*
X170205250Y-137923000D01*
X170307000Y-137821250D01*
X170307000Y-137569043D01*
X170245038Y-137419453D01*
X170130547Y-137304962D01*
X169990531Y-137246965D01*
X170058803Y-137233385D01*
X170193430Y-137143430D01*
X170283385Y-137008803D01*
X170314973Y-136850000D01*
X170314973Y-136050000D01*
X170283385Y-135891197D01*
X170193430Y-135756570D01*
X170058803Y-135666615D01*
X169900000Y-135635027D01*
X169865863Y-135635027D01*
X169883385Y-135608803D01*
X169914973Y-135450000D01*
X169914973Y-134550000D01*
X169886131Y-134405000D01*
X169891197Y-134408385D01*
X170050000Y-134439973D01*
X170106913Y-134439973D01*
X170085027Y-134550000D01*
X170085027Y-135450000D01*
X170116615Y-135608803D01*
X170206570Y-135743430D01*
X170341197Y-135833385D01*
X170500000Y-135864973D01*
X171000000Y-135864973D01*
X171158803Y-135833385D01*
X171293430Y-135743430D01*
X171383385Y-135608803D01*
X171398662Y-135532000D01*
X171529638Y-135532000D01*
X171810027Y-135812389D01*
X171810027Y-136200000D01*
X171841615Y-136358803D01*
X171931570Y-136493430D01*
X172066197Y-136583385D01*
X172225000Y-136614973D01*
X172314399Y-136614973D01*
X172371339Y-136626299D01*
X172279638Y-136718000D01*
X171859204Y-136718000D01*
X171707726Y-136566258D01*
X171411226Y-136443140D01*
X171090182Y-136442860D01*
X170793468Y-136565460D01*
X170566258Y-136792274D01*
X170443140Y-137088774D01*
X170442860Y-137409818D01*
X170565460Y-137706532D01*
X170792274Y-137933742D01*
X171088774Y-138056860D01*
X171409818Y-138057140D01*
X171706532Y-137934540D01*
X171859338Y-137782000D01*
X172500000Y-137782000D01*
X172703588Y-137741504D01*
X172721631Y-137729448D01*
X172815460Y-137956532D01*
X173042274Y-138183742D01*
X173338774Y-138306860D01*
X173659818Y-138307140D01*
X173956532Y-138184540D01*
X174183742Y-137957726D01*
X174306860Y-137661226D01*
X174307048Y-137445314D01*
X174476181Y-137276181D01*
X174487998Y-137258496D01*
X174591504Y-137103588D01*
X174632000Y-136900000D01*
X174632000Y-136607000D01*
X174671250Y-136607000D01*
X174773000Y-136505250D01*
X174773000Y-136285329D01*
X174789973Y-136200000D01*
X174789973Y-134700000D01*
X174773000Y-134614671D01*
X174773000Y-134394750D01*
X174671250Y-134293000D01*
X174544042Y-134293000D01*
X174502205Y-134310330D01*
X174375000Y-134285027D01*
X173825000Y-134285027D01*
X173700000Y-134309891D01*
X173575000Y-134285027D01*
X173025000Y-134285027D01*
X172900000Y-134309891D01*
X172775000Y-134285027D01*
X172225000Y-134285027D01*
X172066197Y-134316615D01*
X171931570Y-134406570D01*
X171874038Y-134492673D01*
X171750000Y-134468000D01*
X171398662Y-134468000D01*
X171393087Y-134439973D01*
X171550000Y-134439973D01*
X171708803Y-134408385D01*
X171843430Y-134318430D01*
X171867772Y-134282000D01*
X174250000Y-134282000D01*
X174453588Y-134241504D01*
X174626181Y-134126181D01*
X178445409Y-130306953D01*
X178659818Y-130307140D01*
X178956532Y-130184540D01*
X179183742Y-129957726D01*
X179306860Y-129661226D01*
X179307140Y-129340182D01*
X179184540Y-129043468D01*
X178957726Y-128816258D01*
X178661226Y-128693140D01*
X178340182Y-128692860D01*
X178043468Y-128815460D01*
X177816258Y-129042274D01*
X177693140Y-129338774D01*
X177692952Y-129554686D01*
X174029638Y-133218000D01*
X173777034Y-133218000D01*
X176477111Y-130306981D01*
X176659818Y-130307140D01*
X176956532Y-130184540D01*
X177183742Y-129957726D01*
X177306860Y-129661226D01*
X177307140Y-129340182D01*
X177184540Y-129043468D01*
X176957726Y-128816258D01*
X176661226Y-128693140D01*
X176340182Y-128692860D01*
X176043468Y-128815460D01*
X175816258Y-129042274D01*
X175693140Y-129338774D01*
X175692923Y-129587828D01*
X173067835Y-132418000D01*
X172334362Y-132418000D01*
X176470362Y-128282000D01*
X178390796Y-128282000D01*
X178542274Y-128433742D01*
X178838774Y-128556860D01*
X179159818Y-128557140D01*
X179456532Y-128434540D01*
X179683742Y-128207726D01*
X179806860Y-127911226D01*
X179807140Y-127590182D01*
X179684540Y-127293468D01*
X179457726Y-127066258D01*
X179161226Y-126943140D01*
X178840182Y-126942860D01*
X178543468Y-127065460D01*
X178390662Y-127218000D01*
X176250005Y-127218000D01*
X176250000Y-127217999D01*
X176089124Y-127250000D01*
X176046412Y-127258496D01*
X175909467Y-127350000D01*
X175873819Y-127373819D01*
X171964973Y-131282665D01*
X171964973Y-131075000D01*
X171940109Y-130950000D01*
X171964973Y-130825000D01*
X171964973Y-130275000D01*
X171940109Y-130150000D01*
X171964973Y-130025000D01*
X171964973Y-129475000D01*
X171939670Y-129347795D01*
X171957000Y-129305958D01*
X171957000Y-129178750D01*
X171855250Y-129077000D01*
X171635329Y-129077000D01*
X171550000Y-129060027D01*
X170050000Y-129060027D01*
X169964671Y-129077000D01*
X169744750Y-129077000D01*
X169643000Y-129178750D01*
X169643000Y-129218000D01*
X169500000Y-129218000D01*
X169296412Y-129258496D01*
X169137058Y-129364973D01*
X169123819Y-129373819D01*
X168724901Y-129772737D01*
X168703587Y-129758496D01*
X168500000Y-129718000D01*
X168296413Y-129758496D01*
X168123819Y-129873819D01*
X168008496Y-130046413D01*
X167968000Y-130250000D01*
X168008496Y-130453587D01*
X168030089Y-130485903D01*
X167900000Y-130460027D01*
X167100000Y-130460027D01*
X166941197Y-130491615D01*
X166806570Y-130581570D01*
X166752506Y-130662482D01*
X166745038Y-130644453D01*
X166630547Y-130529962D01*
X166480957Y-130468000D01*
X166228750Y-130468000D01*
X166127000Y-130569750D01*
X166127000Y-131123000D01*
X166147000Y-131123000D01*
X166147000Y-131377000D01*
X166127000Y-131377000D01*
X166127000Y-131930250D01*
X166228750Y-132032000D01*
X166480957Y-132032000D01*
X166630547Y-131970038D01*
X166745038Y-131855547D01*
X166752506Y-131837518D01*
X166806570Y-131918430D01*
X166941197Y-132008385D01*
X166968000Y-132013716D01*
X166968000Y-132750000D01*
X167008496Y-132953588D01*
X167099765Y-133090182D01*
X167123819Y-133126181D01*
X167468000Y-133470362D01*
X167468000Y-133493000D01*
X167278750Y-133493000D01*
X167177000Y-133594750D01*
X167177000Y-134273000D01*
X167197000Y-134273000D01*
X167197000Y-134527000D01*
X167177000Y-134527000D01*
X167177000Y-134547000D01*
X166923000Y-134547000D01*
X166923000Y-134527000D01*
X166294750Y-134527000D01*
X166193000Y-134628750D01*
X166193000Y-134980958D01*
X166254962Y-135130547D01*
X166321206Y-135196791D01*
X166306570Y-135206570D01*
X166223033Y-135331592D01*
X166207726Y-135316258D01*
X165911226Y-135193140D01*
X165686193Y-135192944D01*
X165706532Y-135184540D01*
X165933742Y-134957726D01*
X166056860Y-134661226D01*
X166057140Y-134340182D01*
X165934540Y-134043468D01*
X165710506Y-133819042D01*
X166193000Y-133819042D01*
X166193000Y-134171250D01*
X166294750Y-134273000D01*
X166923000Y-134273000D01*
X166923000Y-133594750D01*
X166821250Y-133493000D01*
X166519043Y-133493000D01*
X166369453Y-133554962D01*
X166254962Y-133669453D01*
X166193000Y-133819042D01*
X165710506Y-133819042D01*
X165707726Y-133816258D01*
X165411226Y-133693140D01*
X165282000Y-133693027D01*
X165282000Y-132859204D01*
X165433742Y-132707726D01*
X165556860Y-132411226D01*
X165557140Y-132090182D01*
X165533100Y-132032000D01*
X165771250Y-132032000D01*
X165873000Y-131930250D01*
X165873000Y-131377000D01*
X165294750Y-131377000D01*
X165193000Y-131478750D01*
X165193000Y-131560143D01*
X164911226Y-131443140D01*
X164590182Y-131442860D01*
X164293468Y-131565460D01*
X164066258Y-131792274D01*
X163996601Y-131960027D01*
X163350000Y-131960027D01*
X163191197Y-131991615D01*
X163056570Y-132081570D01*
X163002506Y-132162482D01*
X162995038Y-132144453D01*
X162880547Y-132029962D01*
X162730957Y-131968000D01*
X162478750Y-131968000D01*
X162377002Y-132069748D01*
X162377002Y-131968000D01*
X162301715Y-131968000D01*
X162356932Y-131885362D01*
X162433585Y-131500000D01*
X162414973Y-131406431D01*
X162414973Y-130724181D01*
X162617804Y-130724181D01*
X162789778Y-131140389D01*
X163107936Y-131459103D01*
X163523843Y-131631803D01*
X163974181Y-131632196D01*
X164390389Y-131460222D01*
X164709103Y-131142064D01*
X164853614Y-130794042D01*
X165193000Y-130794042D01*
X165193000Y-131021250D01*
X165294750Y-131123000D01*
X165873000Y-131123000D01*
X165873000Y-130569750D01*
X165771250Y-130468000D01*
X165519043Y-130468000D01*
X165369453Y-130529962D01*
X165254962Y-130644453D01*
X165193000Y-130794042D01*
X164853614Y-130794042D01*
X164881803Y-130726157D01*
X164882196Y-130275819D01*
X164710222Y-129859611D01*
X164675628Y-129824957D01*
X164770038Y-129730547D01*
X164832000Y-129580957D01*
X164832000Y-129501750D01*
X164730250Y-129400000D01*
X164052747Y-129400000D01*
X163976157Y-129368197D01*
X163525819Y-129367804D01*
X163447899Y-129400000D01*
X162769750Y-129400000D01*
X162668000Y-129501750D01*
X162668000Y-129580957D01*
X162729962Y-129730547D01*
X162824153Y-129824738D01*
X162790897Y-129857936D01*
X162618197Y-130273843D01*
X162617804Y-130724181D01*
X162414973Y-130724181D01*
X162414973Y-130300000D01*
X162383385Y-130141197D01*
X162305745Y-130025000D01*
X162383385Y-129908803D01*
X162414973Y-129750000D01*
X162414973Y-128851750D01*
X162668000Y-128851750D01*
X162668000Y-128930957D01*
X162686243Y-128975000D01*
X162668000Y-129019043D01*
X162668000Y-129098250D01*
X162769750Y-129200000D01*
X162856432Y-129200000D01*
X162994042Y-129257000D01*
X163521250Y-129257000D01*
X163578250Y-129200000D01*
X163623000Y-129200000D01*
X163623000Y-128750000D01*
X163877000Y-128750000D01*
X163877000Y-129200000D01*
X163921750Y-129200000D01*
X163978750Y-129257000D01*
X164505958Y-129257000D01*
X164643568Y-129200000D01*
X164730250Y-129200000D01*
X164832000Y-129098250D01*
X164832000Y-129019043D01*
X164813757Y-128975000D01*
X164832000Y-128930957D01*
X164832000Y-128851750D01*
X164730250Y-128750000D01*
X164643568Y-128750000D01*
X164505958Y-128693000D01*
X163978750Y-128693000D01*
X163921750Y-128750000D01*
X163877000Y-128750000D01*
X163623000Y-128750000D01*
X163578250Y-128750000D01*
X163521250Y-128693000D01*
X162994042Y-128693000D01*
X162856432Y-128750000D01*
X162769750Y-128750000D01*
X162668000Y-128851750D01*
X162414973Y-128851750D01*
X162414973Y-128250000D01*
X162383385Y-128091197D01*
X162322449Y-128000000D01*
X162383385Y-127908803D01*
X162414973Y-127750000D01*
X162414973Y-126250000D01*
X162383385Y-126091197D01*
X162305745Y-125975000D01*
X162383385Y-125858803D01*
X162414973Y-125700000D01*
X162414973Y-124593569D01*
X162433585Y-124500000D01*
X162356932Y-124114638D01*
X162138642Y-123787943D01*
X161811947Y-123569653D01*
X161426585Y-123493000D01*
X160673415Y-123493000D01*
X160288053Y-123569653D01*
X160007000Y-123757446D01*
X160007000Y-122878750D01*
X161118000Y-122878750D01*
X161118000Y-123130958D01*
X161179962Y-123280547D01*
X161294453Y-123395038D01*
X161444043Y-123457000D01*
X161696250Y-123457000D01*
X161798000Y-123355250D01*
X161798000Y-122777000D01*
X161219750Y-122777000D01*
X161118000Y-122878750D01*
X160007000Y-122878750D01*
X160007000Y-122169042D01*
X161118000Y-122169042D01*
X161118000Y-122421250D01*
X161219750Y-122523000D01*
X161798000Y-122523000D01*
X161798000Y-121944750D01*
X162052000Y-121944750D01*
X162052000Y-122523000D01*
X162072000Y-122523000D01*
X162072000Y-122777000D01*
X162052000Y-122777000D01*
X162052000Y-123355250D01*
X162153750Y-123457000D01*
X162405957Y-123457000D01*
X162555547Y-123395038D01*
X162670038Y-123280547D01*
X162728035Y-123140531D01*
X162741615Y-123208803D01*
X162831570Y-123343430D01*
X162966197Y-123433385D01*
X162968000Y-123433744D01*
X162968000Y-123500000D01*
X163008496Y-123703588D01*
X163087115Y-123821250D01*
X163123819Y-123876181D01*
X163615520Y-124367882D01*
X163525819Y-124367804D01*
X163109611Y-124539778D01*
X162790897Y-124857936D01*
X162618197Y-125273843D01*
X162617804Y-125724181D01*
X162789778Y-126140389D01*
X162826125Y-126176799D01*
X162781570Y-126206570D01*
X162691615Y-126341197D01*
X162660027Y-126500000D01*
X162660027Y-126900000D01*
X162684891Y-127025000D01*
X162660027Y-127150000D01*
X162660027Y-127550000D01*
X162684891Y-127675000D01*
X162660027Y-127800000D01*
X162660027Y-128200000D01*
X162685330Y-128327205D01*
X162668000Y-128369043D01*
X162668000Y-128448250D01*
X162769750Y-128550000D01*
X162866233Y-128550000D01*
X162916197Y-128583385D01*
X163075000Y-128614973D01*
X164425000Y-128614973D01*
X164583803Y-128583385D01*
X164633767Y-128550000D01*
X164730250Y-128550000D01*
X164748250Y-128532000D01*
X165335027Y-128532000D01*
X165335027Y-128950000D01*
X165366615Y-129108803D01*
X165456570Y-129243430D01*
X165591197Y-129333385D01*
X165750000Y-129364973D01*
X166250000Y-129364973D01*
X166408803Y-129333385D01*
X166543430Y-129243430D01*
X166633385Y-129108803D01*
X166664973Y-128950000D01*
X166664973Y-128050000D01*
X166633385Y-127891197D01*
X166543430Y-127756570D01*
X166533597Y-127750000D01*
X166543430Y-127743430D01*
X166633385Y-127608803D01*
X166664973Y-127450000D01*
X166664973Y-126550000D01*
X166633385Y-126391197D01*
X166543430Y-126256570D01*
X166408803Y-126166615D01*
X166250000Y-126135027D01*
X165807101Y-126135027D01*
X165807140Y-126090182D01*
X165691897Y-125811272D01*
X165793430Y-125743430D01*
X165883385Y-125608803D01*
X165914973Y-125450000D01*
X165914973Y-124550000D01*
X165883385Y-124391197D01*
X165793430Y-124256570D01*
X165658803Y-124166615D01*
X165500000Y-124135027D01*
X165000000Y-124135027D01*
X164906072Y-124153710D01*
X164162180Y-123409818D01*
X165192860Y-123409818D01*
X165315460Y-123706532D01*
X165542274Y-123933742D01*
X165838774Y-124056860D01*
X166159818Y-124057140D01*
X166230195Y-124028061D01*
X166250000Y-124032000D01*
X166529638Y-124032000D01*
X166632665Y-124135027D01*
X166500000Y-124135027D01*
X166341197Y-124166615D01*
X166206570Y-124256570D01*
X166116615Y-124391197D01*
X166085027Y-124550000D01*
X166085027Y-125450000D01*
X166116615Y-125608803D01*
X166206570Y-125743430D01*
X166341197Y-125833385D01*
X166500000Y-125864973D01*
X166777629Y-125864973D01*
X166815460Y-125956532D01*
X167042274Y-126183742D01*
X167056638Y-126189707D01*
X166956570Y-126256570D01*
X166866615Y-126391197D01*
X166835027Y-126550000D01*
X166835027Y-127450000D01*
X166866615Y-127608803D01*
X166956570Y-127743430D01*
X166966403Y-127750000D01*
X166956570Y-127756570D01*
X166866615Y-127891197D01*
X166835027Y-128050000D01*
X166835027Y-128950000D01*
X166866615Y-129108803D01*
X166956570Y-129243430D01*
X167091197Y-129333385D01*
X167250000Y-129364973D01*
X167750000Y-129364973D01*
X167908803Y-129333385D01*
X168043430Y-129243430D01*
X168133385Y-129108803D01*
X168164973Y-128950000D01*
X168164973Y-128682000D01*
X169643000Y-128682000D01*
X169643000Y-128721250D01*
X169744750Y-128823000D01*
X169964671Y-128823000D01*
X170050000Y-128839973D01*
X171550000Y-128839973D01*
X171635329Y-128823000D01*
X171855250Y-128823000D01*
X171957000Y-128721250D01*
X171957000Y-128594042D01*
X171939670Y-128552205D01*
X171964973Y-128425000D01*
X171964973Y-127875000D01*
X171940109Y-127750000D01*
X171964973Y-127625000D01*
X171964973Y-127075000D01*
X171940109Y-126950000D01*
X171964973Y-126825000D01*
X171964973Y-126282000D01*
X172279638Y-126282000D01*
X172623819Y-126626181D01*
X172796412Y-126741504D01*
X173000000Y-126782000D01*
X179140796Y-126782000D01*
X179292274Y-126933742D01*
X179588774Y-127056860D01*
X179909818Y-127057140D01*
X180206532Y-126934540D01*
X180433742Y-126707726D01*
X180556860Y-126411226D01*
X180557140Y-126090182D01*
X180434540Y-125793468D01*
X180207726Y-125566258D01*
X179911226Y-125443140D01*
X179590182Y-125442860D01*
X179293468Y-125565460D01*
X179140662Y-125718000D01*
X173220362Y-125718000D01*
X172876181Y-125373819D01*
X172703588Y-125258496D01*
X172500000Y-125218000D01*
X171867772Y-125218000D01*
X171843430Y-125181570D01*
X171708803Y-125091615D01*
X171550000Y-125060027D01*
X170050000Y-125060027D01*
X169891197Y-125091615D01*
X169756570Y-125181570D01*
X169666615Y-125316197D01*
X169635027Y-125475000D01*
X169635027Y-126025000D01*
X169659891Y-126150000D01*
X169635027Y-126275000D01*
X169635027Y-126818000D01*
X168164973Y-126818000D01*
X168164973Y-126550000D01*
X168133385Y-126391197D01*
X168043430Y-126256570D01*
X167943616Y-126189877D01*
X167956532Y-126184540D01*
X168183742Y-125957726D01*
X168306860Y-125661226D01*
X168307140Y-125340182D01*
X168184540Y-125043468D01*
X167957726Y-124816258D01*
X167875224Y-124782000D01*
X171810027Y-124782000D01*
X171810027Y-124800000D01*
X171841615Y-124958803D01*
X171931570Y-125093430D01*
X172066197Y-125183385D01*
X172225000Y-125214973D01*
X172775000Y-125214973D01*
X172902205Y-125189670D01*
X172944042Y-125207000D01*
X173071250Y-125207000D01*
X173173000Y-125105250D01*
X173173000Y-124885329D01*
X173189973Y-124800000D01*
X173189973Y-123300000D01*
X173173000Y-123214671D01*
X173173000Y-122994750D01*
X173071250Y-122893000D01*
X172944042Y-122893000D01*
X172902205Y-122910330D01*
X172775000Y-122885027D01*
X172225000Y-122885027D01*
X172066197Y-122916615D01*
X171931570Y-123006570D01*
X171841615Y-123141197D01*
X171810027Y-123300000D01*
X171810027Y-123718000D01*
X167720362Y-123718000D01*
X167126181Y-123123819D01*
X166953588Y-123008496D01*
X166757251Y-122969442D01*
X166684540Y-122793468D01*
X166457726Y-122566258D01*
X166161226Y-122443140D01*
X165840182Y-122442860D01*
X165543468Y-122565460D01*
X165316258Y-122792274D01*
X165193140Y-123088774D01*
X165192860Y-123409818D01*
X164162180Y-123409818D01*
X164144914Y-123392552D01*
X164218430Y-123343430D01*
X164308385Y-123208803D01*
X164339973Y-123050000D01*
X164339973Y-122250000D01*
X164308385Y-122091197D01*
X164218430Y-121956570D01*
X164083803Y-121866615D01*
X163925000Y-121835027D01*
X163125000Y-121835027D01*
X162966197Y-121866615D01*
X162831570Y-121956570D01*
X162741615Y-122091197D01*
X162728035Y-122159469D01*
X162670038Y-122019453D01*
X162555547Y-121904962D01*
X162405957Y-121843000D01*
X162153750Y-121843000D01*
X162052000Y-121944750D01*
X161798000Y-121944750D01*
X161696250Y-121843000D01*
X161444043Y-121843000D01*
X161294453Y-121904962D01*
X161179962Y-122019453D01*
X161118000Y-122169042D01*
X160007000Y-122169042D01*
X160007000Y-120528750D01*
X161118000Y-120528750D01*
X161118000Y-120780958D01*
X161179962Y-120930547D01*
X161294453Y-121045038D01*
X161444043Y-121107000D01*
X161696250Y-121107000D01*
X161798000Y-121005250D01*
X161798000Y-120427000D01*
X161219750Y-120427000D01*
X161118000Y-120528750D01*
X160007000Y-120528750D01*
X160007000Y-119819042D01*
X161118000Y-119819042D01*
X161118000Y-120071250D01*
X161219750Y-120173000D01*
X161798000Y-120173000D01*
X161798000Y-119594750D01*
X162052000Y-119594750D01*
X162052000Y-120173000D01*
X162072000Y-120173000D01*
X162072000Y-120427000D01*
X162052000Y-120427000D01*
X162052000Y-121005250D01*
X162153750Y-121107000D01*
X162405957Y-121107000D01*
X162555547Y-121045038D01*
X162670038Y-120930547D01*
X162728035Y-120790531D01*
X162741615Y-120858803D01*
X162831570Y-120993430D01*
X162966197Y-121083385D01*
X163125000Y-121114973D01*
X163925000Y-121114973D01*
X164083803Y-121083385D01*
X164218430Y-120993430D01*
X164308385Y-120858803D01*
X164313716Y-120832000D01*
X164579638Y-120832000D01*
X164625515Y-120877877D01*
X164616615Y-120891197D01*
X164585027Y-121050000D01*
X164585027Y-121950000D01*
X164616615Y-122108803D01*
X164706570Y-122243430D01*
X164841197Y-122333385D01*
X165000000Y-122364973D01*
X165500000Y-122364973D01*
X165658803Y-122333385D01*
X165793430Y-122243430D01*
X165883385Y-122108803D01*
X165914973Y-121950000D01*
X165914973Y-121050000D01*
X166085027Y-121050000D01*
X166085027Y-121950000D01*
X166116615Y-122108803D01*
X166206570Y-122243430D01*
X166341197Y-122333385D01*
X166500000Y-122364973D01*
X166862611Y-122364973D01*
X167193047Y-122695409D01*
X167192860Y-122909818D01*
X167315460Y-123206532D01*
X167542274Y-123433742D01*
X167838774Y-123556860D01*
X168159818Y-123557140D01*
X168456532Y-123434540D01*
X168683742Y-123207726D01*
X168806860Y-122911226D01*
X168807140Y-122590182D01*
X168793445Y-122557039D01*
X168909818Y-122557140D01*
X169206532Y-122434540D01*
X169433742Y-122207726D01*
X169472659Y-122114005D01*
X169542274Y-122183742D01*
X169838774Y-122306860D01*
X170159818Y-122307140D01*
X170456532Y-122184540D01*
X170683742Y-121957726D01*
X170806860Y-121661226D01*
X170807140Y-121340182D01*
X170684540Y-121043468D01*
X170457726Y-120816258D01*
X170161226Y-120693140D01*
X170082000Y-120693071D01*
X170082000Y-120542033D01*
X170315090Y-120386288D01*
X170549638Y-120035261D01*
X170550000Y-120033441D01*
X170550362Y-120035261D01*
X170784910Y-120386288D01*
X170998810Y-120529211D01*
X171033496Y-120703588D01*
X171131884Y-120850836D01*
X171148819Y-120876181D01*
X172423819Y-122151181D01*
X172596412Y-122266504D01*
X172800000Y-122307000D01*
X173279638Y-122307000D01*
X173857665Y-122885027D01*
X173825000Y-122885027D01*
X173697795Y-122910330D01*
X173655958Y-122893000D01*
X173528750Y-122893000D01*
X173427000Y-122994750D01*
X173427000Y-123214671D01*
X173410027Y-123300000D01*
X173410027Y-124800000D01*
X173427000Y-124885329D01*
X173427000Y-125105250D01*
X173528750Y-125207000D01*
X173655958Y-125207000D01*
X173697795Y-125189670D01*
X173825000Y-125214973D01*
X174375000Y-125214973D01*
X174500000Y-125190109D01*
X174625000Y-125214973D01*
X175175000Y-125214973D01*
X175300000Y-125190109D01*
X175425000Y-125214973D01*
X175975000Y-125214973D01*
X176100000Y-125190109D01*
X176225000Y-125214973D01*
X176775000Y-125214973D01*
X176900000Y-125190109D01*
X177025000Y-125214973D01*
X177575000Y-125214973D01*
X177700000Y-125190109D01*
X177825000Y-125214973D01*
X178375000Y-125214973D01*
X178500000Y-125190109D01*
X178625000Y-125214973D01*
X179175000Y-125214973D01*
X179302205Y-125189670D01*
X179344042Y-125207000D01*
X179471250Y-125207000D01*
X179573000Y-125105250D01*
X179573000Y-124885329D01*
X179589973Y-124800000D01*
X179589973Y-123300000D01*
X179573000Y-123214671D01*
X179573000Y-123004362D01*
X181951181Y-120626181D01*
X181953325Y-120622972D01*
X181964063Y-120620836D01*
X182315090Y-120386288D01*
X182549638Y-120035261D01*
X182632000Y-119621198D01*
X182632000Y-119578802D01*
X182549638Y-119164739D01*
X182315090Y-118813712D01*
X181964063Y-118579164D01*
X181550000Y-118496802D01*
X181135937Y-118579164D01*
X180784910Y-118813712D01*
X180550362Y-119164739D01*
X180550000Y-119166559D01*
X180549638Y-119164739D01*
X180315090Y-118813712D01*
X179964063Y-118579164D01*
X179550000Y-118496802D01*
X179135937Y-118579164D01*
X178784910Y-118813712D01*
X178550362Y-119164739D01*
X178550000Y-119166559D01*
X178549638Y-119164739D01*
X178315090Y-118813712D01*
X177964063Y-118579164D01*
X177550000Y-118496802D01*
X177135937Y-118579164D01*
X176784910Y-118813712D01*
X176550362Y-119164739D01*
X176550000Y-119166559D01*
X176549638Y-119164739D01*
X176315090Y-118813712D01*
X175964063Y-118579164D01*
X175550000Y-118496802D01*
X175135937Y-118579164D01*
X174784910Y-118813712D01*
X174550362Y-119164739D01*
X174550000Y-119166559D01*
X174549638Y-119164739D01*
X174315090Y-118813712D01*
X173964063Y-118579164D01*
X173550000Y-118496802D01*
X173135937Y-118579164D01*
X172784910Y-118813712D01*
X172550362Y-119164739D01*
X172550000Y-119166559D01*
X172549638Y-119164739D01*
X172315090Y-118813712D01*
X171964063Y-118579164D01*
X171550000Y-118496802D01*
X171135937Y-118579164D01*
X170784910Y-118813712D01*
X170550362Y-119164739D01*
X170550000Y-119166559D01*
X170549638Y-119164739D01*
X170315090Y-118813712D01*
X169964063Y-118579164D01*
X169550000Y-118496802D01*
X169135937Y-118579164D01*
X168784910Y-118813712D01*
X168639973Y-119030626D01*
X168639973Y-118925000D01*
X168608385Y-118766197D01*
X168518430Y-118631570D01*
X168383803Y-118541615D01*
X168225000Y-118510027D01*
X166875000Y-118510027D01*
X166716197Y-118541615D01*
X166581570Y-118631570D01*
X166491615Y-118766197D01*
X166460027Y-118925000D01*
X166460027Y-120275000D01*
X166491615Y-120433803D01*
X166581570Y-120568430D01*
X166681239Y-120635027D01*
X166500000Y-120635027D01*
X166341197Y-120666615D01*
X166206570Y-120756570D01*
X166116615Y-120891197D01*
X166085027Y-121050000D01*
X165914973Y-121050000D01*
X165883385Y-120891197D01*
X165793430Y-120756570D01*
X165781755Y-120748769D01*
X165741504Y-120546412D01*
X165626181Y-120373819D01*
X165176181Y-119923819D01*
X165137687Y-119898098D01*
X165003588Y-119808496D01*
X164800000Y-119768000D01*
X164313716Y-119768000D01*
X164308385Y-119741197D01*
X164218430Y-119606570D01*
X164083803Y-119516615D01*
X163925000Y-119485027D01*
X163125000Y-119485027D01*
X162966197Y-119516615D01*
X162831570Y-119606570D01*
X162741615Y-119741197D01*
X162728035Y-119809469D01*
X162670038Y-119669453D01*
X162555547Y-119554962D01*
X162405957Y-119493000D01*
X162153750Y-119493000D01*
X162052000Y-119594750D01*
X161798000Y-119594750D01*
X161696250Y-119493000D01*
X161444043Y-119493000D01*
X161294453Y-119554962D01*
X161179962Y-119669453D01*
X161118000Y-119819042D01*
X160007000Y-119819042D01*
X160007000Y-117395164D01*
X160534441Y-117395164D01*
X160792153Y-117722620D01*
X161753685Y-118111327D01*
X162790776Y-118102483D01*
X163707847Y-117722620D01*
X163965559Y-117395164D01*
X162250000Y-115679605D01*
X160534441Y-117395164D01*
X160007000Y-117395164D01*
X160007000Y-116908645D01*
X160027380Y-116957847D01*
X160354836Y-117215559D01*
X162070395Y-115500000D01*
X162429605Y-115500000D01*
X164145164Y-117215559D01*
X164472620Y-116957847D01*
X164861327Y-115996315D01*
X164852483Y-114959224D01*
X164472620Y-114042153D01*
X164145164Y-113784441D01*
X162429605Y-115500000D01*
X162070395Y-115500000D01*
X160354836Y-113784441D01*
X160027380Y-114042153D01*
X160007000Y-114092566D01*
X160007000Y-113257000D01*
X160841355Y-113257000D01*
X160792153Y-113277380D01*
G36*
X162085027Y-136500000D02*
X162116615Y-136658803D01*
X162206570Y-136793430D01*
X162341197Y-136883385D01*
X162500000Y-136914973D01*
X163400000Y-136914973D01*
X163558803Y-136883385D01*
X163693430Y-136793430D01*
X163783385Y-136658803D01*
X163808608Y-136532000D01*
X163966715Y-136532000D01*
X163943140Y-136588774D01*
X163942860Y-136909818D01*
X164065460Y-137206532D01*
X164178185Y-137319453D01*
X163662611Y-137835027D01*
X163300000Y-137835027D01*
X163141197Y-137866615D01*
X163006570Y-137956570D01*
X162916615Y-138091197D01*
X162885027Y-138250000D01*
X162885027Y-138750000D01*
X162916615Y-138908803D01*
X163006570Y-139043430D01*
X163141197Y-139133385D01*
X163300000Y-139164973D01*
X164200000Y-139164973D01*
X164358803Y-139133385D01*
X164467853Y-139060520D01*
X164455027Y-139125000D01*
X164455027Y-139430910D01*
X164358803Y-139366615D01*
X164200000Y-139335027D01*
X163300000Y-139335027D01*
X163141197Y-139366615D01*
X163061293Y-139420005D01*
X162957726Y-139316258D01*
X162661226Y-139193140D01*
X162340182Y-139192860D01*
X162043468Y-139315460D01*
X161816258Y-139542274D01*
X161693140Y-139838774D01*
X161692860Y-140159818D01*
X161815460Y-140456532D01*
X162042274Y-140683742D01*
X162124776Y-140718000D01*
X161797105Y-140718000D01*
X161770836Y-140585937D01*
X161536288Y-140234910D01*
X161185261Y-140000362D01*
X161141335Y-139991625D01*
X161419728Y-139849834D01*
X161693965Y-139528850D01*
X161791425Y-139293529D01*
X161721988Y-139127000D01*
X160877000Y-139127000D01*
X160877000Y-139147000D01*
X160623000Y-139147000D01*
X160623000Y-139127000D01*
X160603000Y-139127000D01*
X160603000Y-138873000D01*
X160623000Y-138873000D01*
X160623000Y-138853000D01*
X160877000Y-138853000D01*
X160877000Y-138873000D01*
X161721988Y-138873000D01*
X161791425Y-138706471D01*
X161693965Y-138471150D01*
X161419728Y-138150166D01*
X161141335Y-138008375D01*
X161185261Y-137999638D01*
X161536288Y-137765090D01*
X161770836Y-137414063D01*
X161853198Y-137000000D01*
X161770836Y-136585937D01*
X161601161Y-136332000D01*
X162085027Y-136332000D01*
X162085027Y-136500000D01*
X162085027Y-136500000D01*
G37*
X162085027Y-136500000D02*
X162116615Y-136658803D01*
X162206570Y-136793430D01*
X162341197Y-136883385D01*
X162500000Y-136914973D01*
X163400000Y-136914973D01*
X163558803Y-136883385D01*
X163693430Y-136793430D01*
X163783385Y-136658803D01*
X163808608Y-136532000D01*
X163966715Y-136532000D01*
X163943140Y-136588774D01*
X163942860Y-136909818D01*
X164065460Y-137206532D01*
X164178185Y-137319453D01*
X163662611Y-137835027D01*
X163300000Y-137835027D01*
X163141197Y-137866615D01*
X163006570Y-137956570D01*
X162916615Y-138091197D01*
X162885027Y-138250000D01*
X162885027Y-138750000D01*
X162916615Y-138908803D01*
X163006570Y-139043430D01*
X163141197Y-139133385D01*
X163300000Y-139164973D01*
X164200000Y-139164973D01*
X164358803Y-139133385D01*
X164467853Y-139060520D01*
X164455027Y-139125000D01*
X164455027Y-139430910D01*
X164358803Y-139366615D01*
X164200000Y-139335027D01*
X163300000Y-139335027D01*
X163141197Y-139366615D01*
X163061293Y-139420005D01*
X162957726Y-139316258D01*
X162661226Y-139193140D01*
X162340182Y-139192860D01*
X162043468Y-139315460D01*
X161816258Y-139542274D01*
X161693140Y-139838774D01*
X161692860Y-140159818D01*
X161815460Y-140456532D01*
X162042274Y-140683742D01*
X162124776Y-140718000D01*
X161797105Y-140718000D01*
X161770836Y-140585937D01*
X161536288Y-140234910D01*
X161185261Y-140000362D01*
X161141335Y-139991625D01*
X161419728Y-139849834D01*
X161693965Y-139528850D01*
X161791425Y-139293529D01*
X161721988Y-139127000D01*
X160877000Y-139127000D01*
X160877000Y-139147000D01*
X160623000Y-139147000D01*
X160623000Y-139127000D01*
X160603000Y-139127000D01*
X160603000Y-138873000D01*
X160623000Y-138873000D01*
X160623000Y-138853000D01*
X160877000Y-138853000D01*
X160877000Y-138873000D01*
X161721988Y-138873000D01*
X161791425Y-138706471D01*
X161693965Y-138471150D01*
X161419728Y-138150166D01*
X161141335Y-138008375D01*
X161185261Y-137999638D01*
X161536288Y-137765090D01*
X161770836Y-137414063D01*
X161853198Y-137000000D01*
X161770836Y-136585937D01*
X161601161Y-136332000D01*
X162085027Y-136332000D01*
X162085027Y-136500000D01*
G36*
X165527000Y-138373000D02*
X165547000Y-138373000D01*
X165547000Y-138627000D01*
X165527000Y-138627000D01*
X165527000Y-138647000D01*
X165273000Y-138647000D01*
X165273000Y-138627000D01*
X165253000Y-138627000D01*
X165253000Y-138373000D01*
X165273000Y-138373000D01*
X165273000Y-138353000D01*
X165527000Y-138353000D01*
X165527000Y-138373000D01*
X165527000Y-138373000D01*
G37*
X165527000Y-138373000D02*
X165547000Y-138373000D01*
X165547000Y-138627000D01*
X165527000Y-138627000D01*
X165527000Y-138647000D01*
X165273000Y-138647000D01*
X165273000Y-138627000D01*
X165253000Y-138627000D01*
X165253000Y-138373000D01*
X165273000Y-138373000D01*
X165273000Y-138353000D01*
X165527000Y-138353000D01*
X165527000Y-138373000D01*
G36*
X160288053Y-132430347D02*
X160673415Y-132507000D01*
X161426585Y-132507000D01*
X161443000Y-132503735D01*
X161443000Y-132521250D01*
X161544750Y-132623000D01*
X162123000Y-132623000D01*
X162123000Y-132603000D01*
X162377000Y-132603000D01*
X162377000Y-132623000D01*
X162397000Y-132623000D01*
X162397000Y-132877000D01*
X162377000Y-132877000D01*
X162377000Y-133430250D01*
X162439750Y-133493000D01*
X162419043Y-133493000D01*
X162269453Y-133554962D01*
X162154962Y-133669453D01*
X162093000Y-133819042D01*
X162093000Y-134171250D01*
X162194750Y-134273000D01*
X162823000Y-134273000D01*
X162823000Y-133594750D01*
X162751670Y-133523420D01*
X162880547Y-133470038D01*
X162995038Y-133355547D01*
X163002506Y-133337518D01*
X163056570Y-133418430D01*
X163174513Y-133497237D01*
X163077000Y-133594750D01*
X163077000Y-134273000D01*
X163705250Y-134273000D01*
X163807000Y-134171250D01*
X163807000Y-133819042D01*
X163745038Y-133669453D01*
X163630547Y-133554962D01*
X163594360Y-133539973D01*
X164150000Y-133539973D01*
X164218000Y-133526447D01*
X164218000Y-134000000D01*
X164258496Y-134203588D01*
X164349765Y-134340182D01*
X164373819Y-134376181D01*
X164443047Y-134445409D01*
X164442860Y-134659818D01*
X164565460Y-134956532D01*
X164792274Y-135183742D01*
X165088774Y-135306860D01*
X165313807Y-135307056D01*
X165293468Y-135315460D01*
X165140662Y-135468000D01*
X163808608Y-135468000D01*
X163783385Y-135341197D01*
X163693430Y-135206570D01*
X163678794Y-135196791D01*
X163745038Y-135130547D01*
X163807000Y-134980958D01*
X163807000Y-134628750D01*
X163705250Y-134527000D01*
X163077000Y-134527000D01*
X163077000Y-134547000D01*
X162823000Y-134547000D01*
X162823000Y-134527000D01*
X162194750Y-134527000D01*
X162093000Y-134628750D01*
X162093000Y-134980958D01*
X162154962Y-135130547D01*
X162221206Y-135196791D01*
X162206570Y-135206570D01*
X162165524Y-135268000D01*
X161839973Y-135268000D01*
X161839973Y-134325000D01*
X161808385Y-134166197D01*
X161718430Y-134031570D01*
X161583803Y-133941615D01*
X161425000Y-133910027D01*
X160075000Y-133910027D01*
X160007000Y-133923553D01*
X160007000Y-132978750D01*
X161443000Y-132978750D01*
X161443000Y-133205958D01*
X161504962Y-133355547D01*
X161619453Y-133470038D01*
X161769043Y-133532000D01*
X162021250Y-133532000D01*
X162123000Y-133430250D01*
X162123000Y-132877000D01*
X161544750Y-132877000D01*
X161443000Y-132978750D01*
X160007000Y-132978750D01*
X160007000Y-132242554D01*
X160288053Y-132430347D01*
X160288053Y-132430347D01*
G37*
X160288053Y-132430347D02*
X160673415Y-132507000D01*
X161426585Y-132507000D01*
X161443000Y-132503735D01*
X161443000Y-132521250D01*
X161544750Y-132623000D01*
X162123000Y-132623000D01*
X162123000Y-132603000D01*
X162377000Y-132603000D01*
X162377000Y-132623000D01*
X162397000Y-132623000D01*
X162397000Y-132877000D01*
X162377000Y-132877000D01*
X162377000Y-133430250D01*
X162439750Y-133493000D01*
X162419043Y-133493000D01*
X162269453Y-133554962D01*
X162154962Y-133669453D01*
X162093000Y-133819042D01*
X162093000Y-134171250D01*
X162194750Y-134273000D01*
X162823000Y-134273000D01*
X162823000Y-133594750D01*
X162751670Y-133523420D01*
X162880547Y-133470038D01*
X162995038Y-133355547D01*
X163002506Y-133337518D01*
X163056570Y-133418430D01*
X163174513Y-133497237D01*
X163077000Y-133594750D01*
X163077000Y-134273000D01*
X163705250Y-134273000D01*
X163807000Y-134171250D01*
X163807000Y-133819042D01*
X163745038Y-133669453D01*
X163630547Y-133554962D01*
X163594360Y-133539973D01*
X164150000Y-133539973D01*
X164218000Y-133526447D01*
X164218000Y-134000000D01*
X164258496Y-134203588D01*
X164349765Y-134340182D01*
X164373819Y-134376181D01*
X164443047Y-134445409D01*
X164442860Y-134659818D01*
X164565460Y-134956532D01*
X164792274Y-135183742D01*
X165088774Y-135306860D01*
X165313807Y-135307056D01*
X165293468Y-135315460D01*
X165140662Y-135468000D01*
X163808608Y-135468000D01*
X163783385Y-135341197D01*
X163693430Y-135206570D01*
X163678794Y-135196791D01*
X163745038Y-135130547D01*
X163807000Y-134980958D01*
X163807000Y-134628750D01*
X163705250Y-134527000D01*
X163077000Y-134527000D01*
X163077000Y-134547000D01*
X162823000Y-134547000D01*
X162823000Y-134527000D01*
X162194750Y-134527000D01*
X162093000Y-134628750D01*
X162093000Y-134980958D01*
X162154962Y-135130547D01*
X162221206Y-135196791D01*
X162206570Y-135206570D01*
X162165524Y-135268000D01*
X161839973Y-135268000D01*
X161839973Y-134325000D01*
X161808385Y-134166197D01*
X161718430Y-134031570D01*
X161583803Y-133941615D01*
X161425000Y-133910027D01*
X160075000Y-133910027D01*
X160007000Y-133923553D01*
X160007000Y-132978750D01*
X161443000Y-132978750D01*
X161443000Y-133205958D01*
X161504962Y-133355547D01*
X161619453Y-133470038D01*
X161769043Y-133532000D01*
X162021250Y-133532000D01*
X162123000Y-133430250D01*
X162123000Y-132877000D01*
X161544750Y-132877000D01*
X161443000Y-132978750D01*
X160007000Y-132978750D01*
X160007000Y-132242554D01*
X160288053Y-132430347D01*
M02*
